<svg width="401" height="180" viewBox="0 0 401 180" fill="none" xmlns="http://www.w3.org/2000/svg">
<path d="M186.831 87.8769V62.4268H203.682V66.8632H192.212V72.9274H202.563V77.3638H192.212V87.8769H186.831ZM211.096 62.4268V87.8769H205.802V62.4268H211.096ZM226.177 79.7497V68.7893H231.471V87.8769H226.388V84.4098H226.189C225.758 85.5282 225.042 86.4271 224.039 87.1064C223.045 87.7857 221.832 88.1254 220.398 88.1254C219.123 88.1254 218 87.8354 217.031 87.2555C216.061 86.6756 215.303 85.8513 214.757 84.7826C214.218 83.7139 213.945 82.4339 213.936 80.9427V68.7893H219.23V79.9983C219.239 81.125 219.541 82.0156 220.137 82.67C220.734 83.3245 221.533 83.6518 222.536 83.6518C223.174 83.6518 223.77 83.5068 224.325 83.2168C224.88 82.9186 225.328 82.4795 225.667 81.8996C226.015 81.3197 226.185 80.6031 226.177 79.7497ZM244.458 68.7893V72.7659H232.963V68.7893H244.458ZM235.573 64.2163H240.867V82.0114C240.867 82.5002 240.941 82.8813 241.09 83.1547C241.239 83.4198 241.447 83.6062 241.712 83.7139C241.985 83.8216 242.3 83.8754 242.656 83.8754C242.905 83.8754 243.153 83.8547 243.402 83.8133C243.65 83.7636 243.841 83.7263 243.973 83.7015L244.806 87.6408C244.541 87.7236 244.168 87.8189 243.687 87.9266C243.207 88.0426 242.623 88.113 241.935 88.1378C240.66 88.1875 239.541 88.0177 238.58 87.6283C237.627 87.239 236.886 86.6342 236.356 85.814C235.825 84.9938 235.565 83.9583 235.573 82.7073V64.2163ZM256.659 68.7893V72.7659H245.165V68.7893H256.659ZM247.774 64.2163H253.068V82.0114C253.068 82.5002 253.143 82.8813 253.292 83.1547C253.441 83.4198 253.648 83.6062 253.913 83.7139C254.186 83.8216 254.501 83.8754 254.857 83.8754C255.106 83.8754 255.355 83.8547 255.603 83.8133C255.852 83.7636 256.042 83.7263 256.175 83.7015L257.007 87.6408C256.742 87.7236 256.369 87.8189 255.889 87.9266C255.408 88.0426 254.824 88.113 254.137 88.1378C252.861 88.1875 251.742 88.0177 250.781 87.6283C249.829 87.239 249.087 86.6342 248.557 85.814C248.027 84.9938 247.766 83.9583 247.774 82.7073V64.2163ZM267.202 88.2497C265.238 88.2497 263.548 87.852 262.132 87.0567C260.723 86.2531 259.638 85.1181 258.876 83.6518C258.114 82.1771 257.732 80.4332 257.732 78.4201C257.732 76.4566 258.114 74.7335 258.876 73.2505C259.638 71.7676 260.711 70.6119 262.094 69.7835C263.486 68.955 265.118 68.5408 266.99 68.5408C268.25 68.5408 269.422 68.7438 270.507 69.1497C271.601 69.5474 272.553 70.148 273.365 70.9516C274.186 71.7552 274.823 72.7659 275.279 73.9837C275.735 75.1933 275.963 76.6099 275.963 78.2337V79.6876H259.845V76.4069H270.979C270.979 75.6448 270.814 74.9696 270.482 74.3814C270.151 73.7932 269.691 73.3334 269.103 73.002C268.523 72.6623 267.848 72.4925 267.077 72.4925C266.274 72.4925 265.561 72.6789 264.94 73.0517C264.327 73.4162 263.846 73.9092 263.499 74.5305C263.151 75.1436 262.972 75.827 262.964 76.5809V79.7C262.964 80.6445 263.138 81.4605 263.486 82.1481C263.842 82.8357 264.344 83.3659 264.99 83.7387C265.636 84.1115 266.402 84.2979 267.289 84.2979C267.877 84.2979 268.415 84.2151 268.904 84.0494C269.393 83.8837 269.811 83.6352 270.159 83.3038C270.507 82.9724 270.772 82.5665 270.955 82.086L275.851 82.4091C275.602 83.5855 275.093 84.6128 274.322 85.4909C273.56 86.3608 272.574 87.0401 271.365 87.5289C270.163 88.0094 268.776 88.2497 267.202 88.2497ZM278.017 87.8769V68.7893H283.15V72.1197H283.349C283.697 70.935 284.281 70.0403 285.101 69.4355C285.921 68.8225 286.865 68.5159 287.934 68.5159C288.199 68.5159 288.485 68.5325 288.791 68.5656C289.098 68.5988 289.367 68.6443 289.599 68.7023V73.3997C289.351 73.3251 289.007 73.2588 288.568 73.2008C288.129 73.1428 287.727 73.1138 287.362 73.1138C286.584 73.1138 285.888 73.2837 285.275 73.6233C284.67 73.9547 284.189 74.4187 283.833 75.0151C283.485 75.6116 283.311 76.2992 283.311 77.078V87.8769H278.017ZM208.18 105.38H205.098C204.916 104.494 204.597 103.715 204.141 103.044C203.694 102.373 203.147 101.809 202.501 101.354C201.863 100.89 201.155 100.542 200.376 100.31C199.597 100.078 198.785 99.9619 197.94 99.9619C196.399 99.9619 195.004 100.351 193.753 101.13C192.51 101.909 191.52 103.056 190.783 104.572C190.054 106.088 189.689 107.948 189.689 110.152C189.689 112.356 190.054 114.215 190.783 115.731C191.52 117.248 192.51 118.395 193.753 119.174C195.004 119.952 196.399 120.342 197.94 120.342C198.785 120.342 199.597 120.226 200.376 119.994C201.155 119.762 201.863 119.418 202.501 118.962C203.147 118.498 203.694 117.931 204.141 117.26C204.597 116.581 204.916 115.802 205.098 114.924H208.18C207.948 116.224 207.526 117.388 206.913 118.416C206.299 119.443 205.537 120.317 204.626 121.038C203.715 121.75 202.692 122.293 201.557 122.666C200.43 123.038 199.225 123.225 197.94 123.225C195.77 123.225 193.84 122.695 192.15 121.634C190.459 120.574 189.13 119.066 188.161 117.111C187.191 115.156 186.707 112.836 186.707 110.152C186.707 107.468 187.191 105.148 188.161 103.193C189.13 101.238 190.459 99.7299 192.15 98.6695C193.84 97.6091 195.77 97.0789 197.94 97.0789C199.225 97.0789 200.43 97.2653 201.557 97.6381C202.692 98.0109 203.715 98.5576 204.626 99.2784C205.537 99.9909 206.299 100.861 206.913 101.888C207.526 102.907 207.948 104.071 208.18 105.38ZM219.117 123.275C217.394 123.275 215.882 122.864 214.581 122.044C213.289 121.224 212.278 120.077 211.549 118.602C210.828 117.127 210.468 115.404 210.468 113.433C210.468 111.444 210.828 109.709 211.549 108.226C212.278 106.743 213.289 105.591 214.581 104.771C215.882 103.951 217.394 103.541 219.117 103.541C220.84 103.541 222.348 103.951 223.64 104.771C224.941 105.591 225.952 106.743 226.672 108.226C227.402 109.709 227.766 111.444 227.766 113.433C227.766 115.404 227.402 117.127 226.672 118.602C225.952 120.077 224.941 121.224 223.64 122.044C222.348 122.864 220.84 123.275 219.117 123.275ZM219.117 120.64C220.426 120.64 221.503 120.305 222.348 119.633C223.193 118.962 223.818 118.08 224.224 116.987C224.63 115.893 224.833 114.708 224.833 113.433C224.833 112.157 224.63 110.968 224.224 109.866C223.818 108.764 223.193 107.874 222.348 107.194C221.503 106.515 220.426 106.175 219.117 106.175C217.808 106.175 216.731 106.515 215.886 107.194C215.041 107.874 214.416 108.764 214.01 109.866C213.604 110.968 213.401 112.157 213.401 113.433C213.401 114.708 213.604 115.893 214.01 116.987C214.416 118.08 215.041 118.962 215.886 119.633C216.731 120.305 217.808 120.64 219.117 120.64ZM233.776 111.395V122.877H230.843V103.789H233.676V106.772H233.925C234.372 105.802 235.052 105.024 235.963 104.436C236.874 103.839 238.051 103.541 239.492 103.541C240.784 103.541 241.915 103.806 242.885 104.336C243.854 104.858 244.608 105.653 245.146 106.722C245.685 107.782 245.954 109.125 245.954 110.748V122.877H243.021V110.947C243.021 109.448 242.632 108.28 241.853 107.443C241.074 106.598 240.006 106.175 238.647 106.175C237.711 106.175 236.874 106.378 236.137 106.784C235.408 107.19 234.832 107.782 234.41 108.561C233.987 109.34 233.776 110.284 233.776 111.395ZM252.846 111.395V122.877H249.913V103.789H252.747V106.772H252.995C253.443 105.802 254.122 105.024 255.033 104.436C255.944 103.839 257.121 103.541 258.562 103.541C259.855 103.541 260.986 103.806 261.955 104.336C262.924 104.858 263.678 105.653 264.217 106.722C264.755 107.782 265.024 109.125 265.024 110.748V122.877H262.092V110.947C262.092 109.448 261.702 108.28 260.923 107.443C260.145 106.598 259.076 106.175 257.717 106.175C256.781 106.175 255.944 106.378 255.207 106.784C254.478 107.19 253.902 107.782 253.48 108.561C253.057 109.34 252.846 110.284 252.846 111.395ZM276.986 123.275C275.147 123.275 273.561 122.869 272.227 122.057C270.901 121.237 269.878 120.093 269.158 118.627C268.445 117.152 268.089 115.437 268.089 113.482C268.089 111.527 268.445 109.804 269.158 108.313C269.878 106.813 270.881 105.645 272.165 104.808C273.457 103.963 274.965 103.541 276.688 103.541C277.682 103.541 278.664 103.706 279.633 104.038C280.603 104.369 281.485 104.908 282.28 105.653C283.076 106.391 283.709 107.368 284.182 108.586C284.654 109.804 284.89 111.303 284.89 113.085V114.327H270.177V111.792H281.907C281.907 110.715 281.692 109.754 281.261 108.909C280.839 108.064 280.234 107.397 279.447 106.908C278.668 106.42 277.749 106.175 276.688 106.175C275.52 106.175 274.509 106.465 273.656 107.045C272.811 107.617 272.161 108.362 271.705 109.282C271.249 110.202 271.022 111.187 271.022 112.24V113.93C271.022 115.371 271.27 116.593 271.767 117.595C272.273 118.59 272.973 119.348 273.867 119.87C274.762 120.383 275.802 120.64 276.986 120.64C277.757 120.64 278.453 120.532 279.074 120.317C279.704 120.093 280.246 119.762 280.702 119.323C281.158 118.875 281.51 118.32 281.758 117.658L284.592 118.453C284.293 119.414 283.792 120.259 283.088 120.988C282.384 121.709 281.514 122.272 280.478 122.678C279.443 123.076 278.279 123.275 276.986 123.275ZM295.706 123.275C293.916 123.275 292.375 122.852 291.083 122.007C289.79 121.162 288.796 119.998 288.1 118.515C287.405 117.032 287.057 115.338 287.057 113.433C287.057 111.494 287.413 109.783 288.125 108.3C288.846 106.809 289.848 105.645 291.133 104.808C292.425 103.963 293.933 103.541 295.656 103.541C296.998 103.541 298.208 103.789 299.285 104.286C300.362 104.783 301.244 105.479 301.931 106.374C302.619 107.269 303.046 108.313 303.211 109.506H300.279C300.055 108.636 299.558 107.865 298.787 107.194C298.025 106.515 296.998 106.175 295.706 106.175C294.562 106.175 293.56 106.474 292.698 107.07C291.845 107.658 291.178 108.491 290.698 109.568C290.225 110.636 289.989 111.892 289.989 113.333C289.989 114.808 290.221 116.092 290.685 117.185C291.157 118.279 291.82 119.128 292.673 119.733C293.535 120.338 294.546 120.64 295.706 120.64C296.468 120.64 297.16 120.507 297.781 120.242C298.402 119.977 298.928 119.596 299.359 119.099C299.79 118.602 300.096 118.006 300.279 117.31H303.211C303.046 118.436 302.636 119.451 301.981 120.354C301.335 121.249 300.478 121.961 299.409 122.492C298.348 123.014 297.114 123.275 295.706 123.275ZM314.4 103.789V106.275H304.508V103.789H314.4ZM307.391 99.2163H310.324V117.409C310.324 118.238 310.444 118.859 310.684 119.273C310.933 119.679 311.248 119.952 311.629 120.093C312.018 120.226 312.428 120.292 312.859 120.292C313.182 120.292 313.447 120.276 313.654 120.242C313.862 120.201 314.027 120.168 314.151 120.143L314.748 122.777C314.549 122.852 314.272 122.927 313.915 123.001C313.559 123.084 313.108 123.125 312.561 123.125C311.732 123.125 310.92 122.947 310.125 122.591C309.338 122.235 308.684 121.692 308.162 120.963C307.648 120.234 307.391 119.315 307.391 118.204V99.2163ZM317.412 122.877V103.789H320.344V122.877H317.412ZM318.903 100.608C318.331 100.608 317.838 100.413 317.424 100.024C317.018 99.6346 316.815 99.1666 316.815 98.6198C316.815 98.073 317.018 97.6049 317.424 97.2156C317.838 96.8262 318.331 96.6315 318.903 96.6315C319.475 96.6315 319.963 96.8262 320.369 97.2156C320.784 97.6049 320.991 98.073 320.991 98.6198C320.991 99.1666 320.784 99.6346 320.369 100.024C319.963 100.413 319.475 100.608 318.903 100.608ZM332.071 123.275C330.347 123.275 328.835 122.864 327.535 122.044C326.242 121.224 325.232 120.077 324.503 118.602C323.782 117.127 323.421 115.404 323.421 113.433C323.421 111.444 323.782 109.709 324.503 108.226C325.232 106.743 326.242 105.591 327.535 104.771C328.835 103.951 330.347 103.541 332.071 103.541C333.794 103.541 335.301 103.951 336.594 104.771C337.895 105.591 338.905 106.743 339.626 108.226C340.355 109.709 340.72 111.444 340.72 113.433C340.72 115.404 340.355 117.127 339.626 118.602C338.905 120.077 337.895 121.224 336.594 122.044C335.301 122.864 333.794 123.275 332.071 123.275ZM332.071 120.64C333.379 120.64 334.456 120.305 335.301 119.633C336.146 118.962 336.772 118.08 337.178 116.987C337.584 115.893 337.787 114.708 337.787 113.433C337.787 112.157 337.584 110.968 337.178 109.866C336.772 108.764 336.146 107.874 335.301 107.194C334.456 106.515 333.379 106.175 332.071 106.175C330.762 106.175 329.685 106.515 328.84 107.194C327.995 107.874 327.369 108.764 326.963 109.866C326.557 110.968 326.354 112.157 326.354 113.433C326.354 114.708 326.557 115.893 326.963 116.987C327.369 118.08 327.995 118.962 328.84 119.633C329.685 120.305 330.762 120.64 332.071 120.64ZM346.729 111.395V122.877H343.797V103.789H346.63V106.772H346.878C347.326 105.802 348.005 105.024 348.916 104.436C349.828 103.839 351.004 103.541 352.446 103.541C353.738 103.541 354.869 103.806 355.838 104.336C356.807 104.858 357.561 105.653 358.1 106.722C358.638 107.782 358.908 109.125 358.908 110.748V122.877H355.975V110.947C355.975 109.448 355.585 108.28 354.807 107.443C354.028 106.598 352.959 106.175 351.601 106.175C350.664 106.175 349.828 106.378 349.09 106.784C348.361 107.19 347.786 107.782 347.363 108.561C346.941 109.34 346.729 110.284 346.729 111.395Z" fill="white"/>
<g clip-path="url(#clip0_1786_7717)">
<path fill-rule="evenodd" clip-rule="evenodd" d="M57.6878 35.2452C57.6936 35.8378 57.8463 36.4302 58.1553 36.9653C58.4848 37.536 58.9596 37.9855 59.514 38.2886C61.2872 37.1415 63.1227 36.0825 65.0144 35.1179C65.03 34.4845 64.8782 33.8468 64.5478 33.2745C64.2397 32.7408 63.8045 32.3132 63.2959 32.012C61.3693 32.999 59.4979 34.0787 57.6878 35.2452ZM51.5218 39.7471C51.6496 40.0186 51.7898 40.2872 51.9428 40.5521C52.3992 41.3425 52.9401 42.0514 53.5475 42.6747C42.4281 51.9174 34.596 64.979 32.0639 79.8467C30.9132 79.5564 29.7139 79.4539 28.5165 79.5506C31.156 63.5984 39.5622 49.5928 51.5218 39.7471ZM70.2836 28.935C70.4512 29.177 70.6104 29.428 70.7603 29.6878C71.22 30.4838 71.565 31.3128 71.8013 32.1566C78.4439 29.7227 85.6196 28.3943 93.1056 28.3943C100.646 28.3943 107.872 29.7422 114.556 32.2102C114.881 31.0685 115.393 29.9789 116.077 28.9908C108.929 26.3122 101.189 24.8474 93.1056 24.8474C85.079 24.8474 77.3897 26.2919 70.2836 28.935ZM123.018 32.0646C124.946 33.057 126.82 34.1424 128.631 35.3148C128.524 36.4456 127.884 37.5322 126.777 38.1716C126.73 38.1986 126.683 38.2244 126.636 38.2491C124.92 37.1419 123.146 36.1172 121.32 35.1806C121.311 33.9836 121.903 32.7875 123.018 32.0646ZM132.631 42.6474C133.486 41.7936 134.181 40.8146 134.703 39.7579C146.644 49.5941 155.041 63.5788 157.687 79.507C156.511 79.426 155.315 79.535 154.147 79.8446C151.612 64.9631 143.767 51.8912 132.631 42.6474ZM154.953 93.401C155.004 92.3795 155.029 91.3515 155.029 90.3176C155.029 89.281 155.003 88.2504 154.953 87.2263C154.989 87.2043 155.025 87.1827 155.061 87.1616C156.18 86.5158 157.455 86.5113 158.493 86.9983C158.548 88.0978 158.576 89.2044 158.576 90.3176C158.576 91.3691 158.551 92.4149 158.502 93.4543C157.322 94.0702 155.991 93.9958 154.953 93.401ZM154.156 100.737C151.65 115.527 143.9 128.534 132.884 137.776C133.483 138.394 134.016 139.095 134.467 139.876C134.626 140.151 134.771 140.43 134.902 140.712C146.766 130.861 155.096 116.901 157.706 101.014C156.509 101.117 155.309 101.021 154.156 100.737ZM128.722 145.261C126.943 146.417 125.103 147.489 123.21 148.471C122.66 148.168 122.189 147.721 121.862 147.154C121.55 146.614 121.397 146.015 121.395 145.416C123.31 144.431 125.167 143.348 126.96 142.176C127.487 142.478 127.938 142.915 128.255 143.463C128.577 144.022 128.73 144.643 128.722 145.261ZM114.643 148.393C114.878 149.195 115.212 149.983 115.65 150.741C115.821 151.038 116.005 151.324 116.2 151.598C109.018 154.306 101.235 155.788 93.1056 155.788C84.9953 155.788 77.2295 154.313 70.0616 151.617C70.7499 150.632 71.267 149.544 71.5971 148.403C78.2967 150.885 85.5428 152.241 93.1056 152.241C100.679 152.241 107.935 150.881 114.643 148.393ZM59.4989 142.337C61.2241 143.454 63.0083 144.487 64.846 145.431C64.8402 146.627 64.2368 147.816 63.1115 148.528C61.1943 147.538 59.3322 146.457 57.5312 145.289C57.6286 144.146 58.2701 143.044 59.3887 142.398C59.4253 142.377 59.462 142.357 59.4989 142.337ZM53.5196 137.937C42.397 128.681 34.5686 115.602 32.0517 100.716C30.8848 101.03 29.689 101.142 28.5133 101.065C31.1441 116.995 39.5252 130.985 51.4531 140.832C51.9724 139.774 52.6663 138.793 53.5196 137.937ZM27.7159 93.5916C28.7462 94.0582 30.0013 94.045 31.1043 93.4081C31.1551 93.3788 31.2049 93.3486 31.2537 93.3174C31.2063 92.3234 31.1823 91.3233 31.1823 90.3176C31.1823 89.271 31.2083 88.2304 31.2596 87.1966C30.2301 86.585 28.899 86.4926 27.7136 87.0897C27.6617 88.1592 27.6354 89.2353 27.6354 90.3176C27.6354 91.4154 27.6624 92.507 27.7159 93.5916Z" fill="white"/>
<path d="M67.6542 31.4812C69.6352 34.9123 68.4193 39.3228 64.9385 41.3325C61.4577 43.3421 57.0301 42.1898 55.0492 38.7587C53.0683 35.3277 54.2841 30.9171 57.7649 28.9075C61.2457 26.8978 65.6733 28.0501 67.6542 31.4812Z" fill="white"/>
<path d="M67.4846 141.866C69.4655 145.297 68.2496 149.707 64.7688 151.717C61.288 153.726 56.8604 152.574 54.8795 149.143C52.8986 145.712 54.1145 141.301 57.5953 139.292C61.076 137.282 65.5036 138.434 67.4846 141.866Z" fill="white"/>
<path d="M163.157 86.6291C165.138 90.0601 163.922 94.4707 160.441 96.4803C156.961 98.49 152.533 97.3377 150.552 93.9066C148.571 90.4756 149.787 86.065 153.268 84.0554C156.749 82.0457 161.176 83.198 163.157 86.6291Z" fill="white"/>
<path d="M35.6135 86.6631C37.5944 90.0942 36.3785 94.5047 32.8977 96.5144C29.4169 98.524 24.9893 97.3717 23.0084 93.9406C21.0275 90.5096 22.2434 86.099 25.7242 84.0894C29.205 82.0797 33.6326 83.232 35.6135 86.6631Z" fill="white"/>
<path d="M131.361 141.67C133.342 145.101 132.126 149.511 128.645 151.521C125.165 153.531 120.737 152.378 118.756 148.947C116.775 145.516 117.991 141.106 121.472 139.096C124.953 137.086 129.38 138.239 131.361 141.67Z" fill="white"/>
<path d="M131.286 31.4267C133.267 34.8577 132.051 39.2683 128.57 41.2779C125.09 43.2876 120.662 42.1353 118.681 38.7042C116.7 35.2731 117.916 30.8626 121.397 28.8529C124.878 26.8433 129.305 27.9956 131.286 31.4267Z" fill="white"/>
<path d="M93.1272 48.5221L119.01 48.4936L75.5859 91.8952L64.2689 103.149L51.3926 90.2567L93.1272 48.5221Z" fill="white"/>
<path d="M92.8864 87.2746C93.2223 86.8309 93.8403 87.0495 94.3093 86.9925L118.988 86.9988L96.4961 109.468L83.5532 96.6046L92.8864 87.2746Z" fill="#F64135"/>
<path d="M70.6516 109.49L83.5533 96.6046L96.4961 109.468L96.55 109.525L83.5564 122.398L70.6516 109.49V109.49Z" fill="#DE2418"/>
<path d="M83.5564 122.398L96.5499 109.525L118.997 131.995C110.542 132.014 102.09 131.988 93.6375 132.007C93.1558 132.115 92.8579 131.674 92.5505 131.402L83.5564 122.398V122.398Z" fill="#C90000"/>
</g>
<defs>
<clipPath id="clip0_1786_7717">
<rect width="143.355" height="143.355" fill="white" transform="translate(21.3916 18.4926)"/>
</clipPath>
</defs>
</svg>
