<svg width="401" height="180" viewBox="0 0 401 180" fill="none" xmlns="http://www.w3.org/2000/svg">
<path d="M186.159 86.728V63.3522H195.152C197.182 63.3522 198.99 63.5505 200.576 63.947C202.186 64.3436 203.446 65.0669 204.355 66.1167C205.289 67.1665 205.755 68.6596 205.755 70.5959C205.755 71.4824 205.592 72.3689 205.265 73.2554C204.939 74.1186 204.367 74.9118 203.551 75.635C202.757 76.3582 201.614 76.9181 200.121 77.3147L206.91 86.728H200.506L194.172 77.9096H191.688V86.728H186.159ZM191.688 73.2904H195.327C196.633 73.2904 197.718 73.1271 198.581 72.8005C199.468 72.4505 199.911 71.739 199.911 70.6659C199.911 69.5694 199.468 68.8578 198.581 68.5312C197.718 68.1813 196.633 68.0063 195.327 68.0063H191.688V73.2904ZM216.474 87.148C214.607 87.148 212.951 86.7864 211.505 86.0631C210.081 85.3166 208.962 84.2551 208.145 82.8787C207.352 81.5023 206.955 79.8576 206.955 77.9446C206.955 76.1016 207.375 74.5035 208.215 73.1504C209.078 71.7973 210.21 70.7475 211.61 70.001C213.033 69.2544 214.584 68.8812 216.264 68.8812C218.177 68.8812 219.81 69.3361 221.163 70.2459C222.539 71.1324 223.577 72.3689 224.277 73.9553C224.977 75.5183 225.269 77.3264 225.152 79.3793H212.309C212.403 80.5924 212.846 81.5023 213.639 82.1088C214.456 82.7154 215.354 83.0187 216.334 83.0187C217.15 83.0187 217.85 82.902 218.433 82.6687C219.04 82.4121 219.506 82.0972 219.833 81.7239L224.067 83.2636C223.157 84.5934 222.014 85.5732 220.638 86.2031C219.285 86.833 217.897 87.148 216.474 87.148ZM212.309 76.2299H220.218C220.195 75.1101 219.81 74.2702 219.063 73.7103C218.317 73.1271 217.43 72.8355 216.404 72.8355C215.401 72.8355 214.502 73.1038 213.709 73.6403C212.939 74.1769 212.473 75.0401 212.309 76.2299ZM231.36 87.148C230.264 87.148 229.261 86.938 228.351 86.5181C227.441 86.0981 226.718 85.5149 226.181 84.7684C225.645 83.9985 225.376 83.0887 225.376 82.0389C225.376 80.6158 225.866 79.4843 226.846 78.6445C227.849 77.8046 229.214 77.1747 230.94 76.7548C232.667 76.3349 234.65 76.0432 236.889 75.8799C236.889 74.6435 236.691 73.7686 236.294 73.2554C235.898 72.7422 235.128 72.4855 233.985 72.4855C233.262 72.4855 232.62 72.6605 232.06 73.0104C231.524 73.3371 231.162 73.8503 230.975 74.5502L226.496 72.9405C227.079 71.774 228.048 70.8058 229.401 70.036C230.777 69.2661 232.457 68.8812 234.44 68.8812C236.913 68.8812 238.814 69.4294 240.144 70.5259C241.473 71.6224 242.138 73.4887 242.138 76.1249V79.9392C242.138 80.6858 242.162 81.4906 242.208 82.3538C242.255 83.217 242.325 84.0335 242.418 84.8034C242.512 85.5732 242.617 86.2148 242.733 86.728H237.799L237.169 84.6284C236.516 85.5382 235.688 86.1915 234.685 86.5881C233.705 86.9613 232.597 87.148 231.36 87.148ZM233.32 83.5086C234.37 83.5086 235.245 83.2286 235.944 82.6687C236.644 82.1088 236.994 81.0357 236.994 79.4493V79.0294C235.151 79.1927 233.67 79.4493 232.55 79.7993C231.43 80.1259 230.87 80.7441 230.87 81.6539C230.87 82.2138 231.104 82.6687 231.57 83.0187C232.037 83.3453 232.62 83.5086 233.32 83.5086ZM252.207 87.148C250.294 87.148 248.673 86.763 247.343 85.9932C246.037 85.2233 245.034 84.1501 244.334 82.7737C243.657 81.374 243.319 79.7643 243.319 77.9446C243.319 76.1249 243.692 74.5385 244.439 73.1854C245.185 71.809 246.223 70.7475 247.553 70.001C248.906 69.2544 250.458 68.8812 252.207 68.8812C253.21 68.8812 254.202 69.0212 255.182 69.3011C256.185 69.5811 257.106 70.0593 257.946 70.7359C258.809 71.3891 259.509 72.2872 260.046 73.4304L255.602 75.0401C255.322 74.2936 254.902 73.7686 254.342 73.4654C253.805 73.1621 253.199 73.0104 252.522 73.0104C251.892 73.0104 251.286 73.1738 250.703 73.5004C250.119 73.8036 249.641 74.3169 249.268 75.0401C248.918 75.7633 248.743 76.7431 248.743 77.9796C248.743 79.2393 248.93 80.2425 249.303 80.989C249.676 81.7122 250.143 82.2372 250.703 82.5638C251.286 82.867 251.892 83.0187 252.522 83.0187C253.269 83.0187 253.899 82.8787 254.412 82.5988C254.925 82.2955 255.333 81.8872 255.637 81.374L259.976 82.9487C259.393 83.9985 258.669 84.8384 257.806 85.4682C256.943 86.0748 256.022 86.5064 255.042 86.763C254.085 87.0196 253.14 87.148 252.207 87.148ZM268.323 86.728C266.9 86.728 265.768 86.6114 264.929 86.3781C264.089 86.1215 263.482 85.6432 263.109 84.9433C262.759 84.2201 262.584 83.182 262.584 81.8289V73.4304H259.715V69.3711H262.584V65.0319H267.903V69.3711H271.682V73.4304H267.903V80.4291C267.903 81.2457 268.055 81.7822 268.358 82.0389C268.685 82.2721 269.28 82.3888 270.143 82.3888H271.682V86.728H268.323ZM282.468 86.728V63.3522H289.502L298.53 80.0092V63.3522H303.884V86.728H296.816L287.787 70.071V86.728H282.468ZM310.855 87.148C309.759 87.148 308.755 86.938 307.846 86.5181C306.936 86.0981 306.212 85.5149 305.676 84.7684C305.139 83.9985 304.871 83.0887 304.871 82.0389C304.871 80.6158 305.361 79.4843 306.341 78.6445C307.344 77.8046 308.709 77.1747 310.435 76.7548C312.161 76.3349 314.144 76.0432 316.384 75.8799C316.384 74.6435 316.186 73.7686 315.789 73.2554C315.393 72.7422 314.623 72.4855 313.48 72.4855C312.756 72.4855 312.115 72.6605 311.555 73.0104C311.018 73.3371 310.657 73.8503 310.47 74.5502L305.991 72.9405C306.574 71.774 307.542 70.8058 308.895 70.036C310.272 69.2661 311.951 68.8812 313.934 68.8812C316.407 68.8812 318.309 69.4294 319.638 70.5259C320.968 71.6224 321.633 73.4887 321.633 76.1249V79.9392C321.633 80.6858 321.656 81.4906 321.703 82.3538C321.75 83.217 321.82 84.0335 321.913 84.8034C322.006 85.5732 322.111 86.2148 322.228 86.728H317.294L316.664 84.6284C316.011 85.5382 315.183 86.1915 314.179 86.5881C313.2 86.9613 312.091 87.148 310.855 87.148ZM312.815 83.5086C313.864 83.5086 314.739 83.2286 315.439 82.6687C316.139 82.1088 316.489 81.0357 316.489 79.4493V79.0294C314.646 79.1927 313.165 79.4493 312.045 79.7993C310.925 80.1259 310.365 80.7441 310.365 81.6539C310.365 82.2138 310.598 82.6687 311.065 83.0187C311.532 83.3453 312.115 83.5086 312.815 83.5086ZM331.037 86.728C329.614 86.728 328.483 86.6114 327.643 86.3781C326.803 86.1215 326.196 85.6432 325.823 84.9433C325.473 84.2201 325.298 83.182 325.298 81.8289V73.4304H322.429V69.3711H325.298V65.0319H330.617V69.3711H334.397V73.4304H330.617V80.4291C330.617 81.2457 330.769 81.7822 331.072 82.0389C331.399 82.2721 331.994 82.3888 332.857 82.3888H334.397V86.728H331.037ZM340.657 66.5016C339.794 66.5016 339.047 66.1983 338.418 65.5918C337.811 64.9619 337.508 64.2153 337.508 63.3522C337.508 62.4656 337.811 61.7191 338.418 61.1125C339.047 60.506 339.794 60.2027 340.657 60.2027C341.544 60.2027 342.29 60.506 342.897 61.1125C343.503 61.7191 343.807 62.4656 343.807 63.3522C343.807 64.2153 343.503 64.9619 342.897 65.5918C342.29 66.1983 341.544 66.5016 340.657 66.5016ZM337.963 86.728V73.4304H334.673V69.3711H343.317V86.728H337.963ZM349.666 86.728L343.472 69.3711H348.966L352.675 81.199L356.384 69.3711H361.878L355.65 86.728H349.666ZM370.508 87.148C368.642 87.148 366.985 86.7864 365.539 86.0631C364.116 85.3166 362.996 84.2551 362.179 82.8787C361.386 81.5023 360.99 79.8576 360.99 77.9446C360.99 76.1016 361.41 74.5035 362.249 73.1504C363.113 71.7973 364.244 70.7475 365.644 70.001C367.067 69.2544 368.618 68.8812 370.298 68.8812C372.211 68.8812 373.844 69.3361 375.197 70.2459C376.574 71.1324 377.612 72.3689 378.312 73.9553C379.011 75.5183 379.303 77.3264 379.186 79.3793H366.344C366.437 80.5924 366.88 81.5023 367.673 82.1088C368.49 82.7154 369.388 83.0187 370.368 83.0187C371.185 83.0187 371.884 82.902 372.468 82.6687C373.074 82.4121 373.541 82.0972 373.867 81.7239L378.102 83.2636C377.192 84.5934 376.049 85.5732 374.672 86.2031C373.319 86.833 371.931 87.148 370.508 87.148ZM366.344 76.2299H374.252C374.229 75.1101 373.844 74.2702 373.098 73.7103C372.351 73.1271 371.464 72.8355 370.438 72.8355C369.435 72.8355 368.537 73.1038 367.743 73.6403C366.974 74.1769 366.507 75.0401 366.344 76.2299ZM196.972 122.148C194.755 122.148 192.854 121.635 191.268 120.608C189.681 119.558 188.468 118.124 187.628 116.304C186.789 114.484 186.369 112.385 186.369 110.005C186.369 107.579 186.812 105.468 187.698 103.671C188.608 101.852 189.88 100.44 191.513 99.437C193.146 98.4338 195.059 97.9322 197.252 97.9322C199.211 97.9322 200.973 98.3871 202.536 99.297C204.122 100.207 205.312 101.513 206.105 103.216L203.236 104.266C202.722 103.216 201.941 102.365 200.891 101.712C199.865 101.035 198.593 100.697 197.077 100.697C195.7 100.697 194.452 101.047 193.332 101.747C192.236 102.446 191.361 103.496 190.708 104.896C190.055 106.272 189.728 107.975 189.728 110.005C189.728 111.965 190.043 113.644 190.673 115.044C191.303 116.444 192.178 117.517 193.297 118.264C194.44 119.01 195.735 119.383 197.182 119.383C198.698 119.383 199.97 119.057 200.996 118.404C202.046 117.75 202.839 116.887 203.376 115.814L206.245 116.864C205.405 118.59 204.169 119.908 202.536 120.818C200.903 121.705 199.048 122.148 196.972 122.148ZM215.842 122.148C214.839 122.148 213.847 121.973 212.868 121.623C211.888 121.273 210.99 120.737 210.173 120.013C209.38 119.267 208.738 118.322 208.248 117.179C207.759 116.036 207.514 114.683 207.514 113.12C207.514 111.556 207.759 110.203 208.248 109.06C208.738 107.917 209.38 106.984 210.173 106.261C210.99 105.514 211.888 104.966 212.868 104.616C213.847 104.266 214.839 104.091 215.842 104.091C216.845 104.091 217.837 104.266 218.817 104.616C219.82 104.966 220.718 105.514 221.511 106.261C222.328 106.984 222.969 107.917 223.436 109.06C223.926 110.203 224.171 111.556 224.171 113.12C224.171 114.683 223.926 116.036 223.436 117.179C222.969 118.322 222.328 119.267 221.511 120.013C220.718 120.737 219.82 121.273 218.817 121.623C217.837 121.973 216.845 122.148 215.842 122.148ZM215.842 119.558C216.682 119.558 217.499 119.337 218.292 118.894C219.085 118.427 219.738 117.727 220.251 116.794C220.765 115.837 221.021 114.613 221.021 113.12C221.021 111.626 220.765 110.413 220.251 109.48C219.738 108.524 219.085 107.824 218.292 107.381C217.499 106.914 216.682 106.681 215.842 106.681C215.026 106.681 214.209 106.914 213.393 107.381C212.599 107.824 211.946 108.524 211.433 109.48C210.92 110.413 210.663 111.626 210.663 113.12C210.663 114.613 210.92 115.837 211.433 116.794C211.946 117.727 212.599 118.427 213.393 118.894C214.209 119.337 215.026 119.558 215.842 119.558ZM226.542 121.728V104.371H228.711L229.481 106.996C229.971 106.179 230.659 105.491 231.546 104.931C232.432 104.371 233.611 104.091 235.08 104.091C237.18 104.091 238.661 104.709 239.524 105.946C240.388 107.159 240.819 108.757 240.819 110.74V121.728H237.88V111.615C237.88 110.728 237.798 109.912 237.635 109.165C237.472 108.395 237.11 107.777 236.55 107.311C236.013 106.844 235.185 106.611 234.065 106.611C232.642 106.611 231.523 107.101 230.706 108.08C229.89 109.037 229.481 110.448 229.481 112.315V121.728H226.542ZM244.245 121.728V104.371H246.415L247.185 106.996C247.674 106.179 248.363 105.491 249.249 104.931C250.136 104.371 251.314 104.091 252.784 104.091C254.883 104.091 256.365 104.709 257.228 105.946C258.091 107.159 258.523 108.757 258.523 110.74V121.728H255.583V111.615C255.583 110.728 255.501 109.912 255.338 109.165C255.175 108.395 254.813 107.777 254.253 107.311C253.717 106.844 252.889 106.611 251.769 106.611C250.346 106.611 249.226 107.101 248.409 108.08C247.593 109.037 247.185 110.448 247.185 112.315V121.728H244.245ZM268.956 122.148C267.137 122.148 265.597 121.751 264.337 120.958C263.077 120.142 262.109 119.057 261.433 117.704C260.779 116.327 260.453 114.788 260.453 113.085C260.453 111.242 260.826 109.655 261.572 108.325C262.319 106.972 263.322 105.934 264.582 105.211C265.865 104.464 267.3 104.091 268.886 104.091C270.263 104.091 271.476 104.371 272.526 104.931C273.575 105.468 274.439 106.202 275.115 107.136C275.815 108.045 276.317 109.084 276.62 110.25C276.946 111.417 277.063 112.618 276.97 113.854H263.602C263.649 115.301 263.964 116.444 264.547 117.284C265.154 118.124 265.865 118.719 266.682 119.068C267.498 119.395 268.256 119.558 268.956 119.558C269.936 119.558 270.753 119.407 271.406 119.103C272.082 118.777 272.619 118.357 273.015 117.844L275.85 118.684C275.22 119.687 274.322 120.515 273.155 121.168C271.989 121.821 270.589 122.148 268.956 122.148ZM263.637 111.51H273.855C273.855 110.693 273.645 109.912 273.225 109.165C272.829 108.419 272.257 107.812 271.511 107.346C270.788 106.856 269.913 106.611 268.886 106.611C268.023 106.611 267.206 106.774 266.437 107.101C265.667 107.427 265.025 107.952 264.512 108.675C264.022 109.399 263.73 110.343 263.637 111.51ZM286 122.148C284.344 122.148 282.909 121.763 281.696 120.993C280.483 120.2 279.55 119.127 278.897 117.774C278.243 116.421 277.917 114.869 277.917 113.12C277.917 111.393 278.255 109.853 278.932 108.5C279.631 107.124 280.611 106.051 281.871 105.281C283.131 104.488 284.612 104.091 286.315 104.091C287.878 104.091 289.22 104.476 290.34 105.246C291.459 106.016 292.299 106.937 292.859 108.01L290.165 108.99C289.791 108.29 289.243 107.73 288.52 107.311C287.797 106.891 286.992 106.681 286.105 106.681C285.242 106.681 284.426 106.914 283.656 107.381C282.886 107.824 282.268 108.524 281.801 109.48C281.335 110.413 281.101 111.615 281.101 113.085C281.101 114.531 281.335 115.744 281.801 116.724C282.291 117.68 282.909 118.392 283.656 118.859C284.426 119.325 285.242 119.558 286.105 119.558C287.062 119.558 287.89 119.348 288.59 118.929C289.313 118.485 289.861 117.937 290.235 117.284L292.929 118.264C292.276 119.383 291.343 120.317 290.13 121.063C288.917 121.786 287.54 122.148 286 122.148ZM300.418 121.728C299.321 121.728 298.47 121.623 297.863 121.413C297.28 121.18 296.872 120.748 296.638 120.118C296.429 119.488 296.324 118.579 296.324 117.389V106.716H293.384V104.371H296.324V99.9969H299.263V104.371H302.622V106.716H299.263V116.899C299.263 117.785 299.345 118.38 299.508 118.684C299.695 118.987 300.208 119.138 301.048 119.138H302.622V121.728H300.418ZM308.089 101.082C307.506 101.082 306.993 100.872 306.549 100.452C306.129 100.009 305.92 99.4836 305.92 98.8771C305.92 98.2705 306.129 97.7573 306.549 97.3373C306.993 96.9174 307.506 96.7074 308.089 96.7074C308.696 96.7074 309.209 96.9174 309.629 97.3373C310.072 97.7573 310.294 98.2705 310.294 98.8771C310.294 99.4836 310.072 100.009 309.629 100.452C309.209 100.872 308.696 101.082 308.089 101.082ZM306.619 121.728V106.716H304.205V104.371H309.559V121.728H306.619ZM320.628 122.148C319.625 122.148 318.633 121.973 317.654 121.623C316.674 121.273 315.776 120.737 314.959 120.013C314.166 119.267 313.524 118.322 313.034 117.179C312.545 116.036 312.3 114.683 312.3 113.12C312.3 111.556 312.545 110.203 313.034 109.06C313.524 107.917 314.166 106.984 314.959 106.261C315.776 105.514 316.674 104.966 317.654 104.616C318.633 104.266 319.625 104.091 320.628 104.091C321.631 104.091 322.623 104.266 323.603 104.616C324.606 104.966 325.504 105.514 326.297 106.261C327.114 106.984 327.755 107.917 328.222 109.06C328.712 110.203 328.957 111.556 328.957 113.12C328.957 114.683 328.712 116.036 328.222 117.179C327.755 118.322 327.114 119.267 326.297 120.013C325.504 120.737 324.606 121.273 323.603 121.623C322.623 121.973 321.631 122.148 320.628 122.148ZM320.628 119.558C321.468 119.558 322.284 119.337 323.078 118.894C323.871 118.427 324.524 117.727 325.037 116.794C325.551 115.837 325.807 114.613 325.807 113.12C325.807 111.626 325.551 110.413 325.037 109.48C324.524 108.524 323.871 107.824 323.078 107.381C322.284 106.914 321.468 106.681 320.628 106.681C319.812 106.681 318.995 106.914 318.179 107.381C317.385 107.824 316.732 108.524 316.219 109.48C315.706 110.413 315.449 111.626 315.449 113.12C315.449 114.613 315.706 115.837 316.219 116.794C316.732 117.727 317.385 118.427 318.179 118.894C318.995 119.337 319.812 119.558 320.628 119.558ZM331.328 121.728V104.371H333.497L334.267 106.996C334.757 106.179 335.445 105.491 336.332 104.931C337.218 104.371 338.397 104.091 339.866 104.091C341.966 104.091 343.447 104.709 344.31 105.946C345.174 107.159 345.605 108.757 345.605 110.74V121.728H342.666V111.615C342.666 110.728 342.584 109.912 342.421 109.165C342.257 108.395 341.896 107.777 341.336 107.311C340.799 106.844 339.971 106.611 338.851 106.611C337.428 106.611 336.309 107.101 335.492 108.08C334.675 109.037 334.267 110.448 334.267 112.315V121.728H331.328Z" fill="white"/>
<g clip-path="url(#clip0_1786_7666)">
<path fill-rule="evenodd" clip-rule="evenodd" d="M57.1414 35.2445C57.1472 35.8371 57.2999 36.4295 57.6089 36.9646C57.9384 37.5353 58.4132 37.9848 58.9676 38.2879C60.7407 37.1408 62.5763 36.0818 64.468 35.1172C64.4835 34.4838 64.3318 33.8461 64.0014 33.2739C63.6933 32.7401 63.258 32.3125 62.7495 32.0113C60.8228 32.9983 58.9515 34.078 57.1414 35.2445ZM50.9754 39.7464C51.1032 40.0179 51.2434 40.2865 51.3964 40.5514C51.8527 41.3419 52.3937 42.0507 53.001 42.674C41.8817 51.9167 34.0496 64.9783 31.5175 79.8461C30.3668 79.5557 29.1675 79.4532 27.9701 79.5499C30.6095 63.5977 39.0158 49.5921 50.9754 39.7464ZM69.7372 28.9343C69.9048 29.1763 70.0639 29.4273 70.2139 29.6871C70.6735 30.4831 71.0186 31.3121 71.2548 32.1559C77.8975 29.722 85.0732 28.3936 92.5592 28.3936C100.1 28.3936 107.326 29.7415 114.009 32.2095C114.335 31.0678 114.847 29.9782 115.531 28.9901C108.383 26.3115 100.642 24.8467 92.5592 24.8467C84.5326 24.8467 76.8433 26.2911 69.7372 28.9343ZM122.471 32.0639C124.4 33.0563 126.273 34.1417 128.085 35.3141C127.978 36.4449 127.338 37.5315 126.23 38.171C126.184 38.1979 126.137 38.2237 126.09 38.2484C124.374 37.1412 122.6 36.1165 120.773 35.1799C120.765 33.9828 121.356 32.7868 122.471 32.0639ZM132.084 42.6467C132.939 41.7929 133.635 40.8139 134.156 39.7572C146.098 49.5934 154.495 63.5781 157.141 79.5063C155.965 79.4254 154.769 79.5343 153.601 79.844C151.066 64.9624 143.221 51.8905 132.084 42.6467ZM154.407 93.4003C154.457 92.3788 154.482 91.3508 154.482 90.3169C154.482 89.2803 154.457 88.2497 154.407 87.2257C154.442 87.2036 154.478 87.182 154.515 87.1609C155.633 86.5151 156.908 86.5106 157.947 86.9976C158.002 88.0971 158.029 89.2037 158.029 90.3169C158.029 91.3684 158.005 92.4142 157.956 93.4536C156.776 94.0695 155.444 93.9952 154.407 93.4003ZM153.61 100.736C151.104 115.527 143.353 128.533 132.338 137.776C132.936 138.393 133.47 139.095 133.921 139.876C134.079 140.151 134.224 140.429 134.356 140.711C146.22 130.86 154.549 116.9 157.16 101.014C155.962 101.117 154.762 101.02 153.61 100.736ZM128.176 145.261C126.396 146.417 124.557 147.488 122.664 148.471C122.114 148.168 121.643 147.72 121.316 147.153C121.004 146.613 120.851 146.014 120.848 145.415C122.763 144.43 124.621 143.348 126.413 142.175C126.94 142.477 127.392 142.914 127.708 143.463C128.031 144.021 128.183 144.642 128.176 145.261ZM114.097 148.392C114.332 149.194 114.666 149.982 115.103 150.74C115.275 151.038 115.459 151.323 115.653 151.598C108.472 154.305 100.688 155.787 92.5592 155.787C84.4489 155.787 76.6831 154.312 69.5152 151.616C70.2035 150.631 70.7206 149.543 71.0507 148.403C77.7503 150.884 84.9964 152.24 92.5592 152.24C100.133 152.24 107.389 150.88 114.097 148.392ZM58.9525 142.336C60.6777 143.453 62.4619 144.486 64.2995 145.43C64.2938 146.626 63.6905 147.816 62.5651 148.528C60.6479 147.538 58.7858 146.456 56.9848 145.288C57.0822 144.145 57.7237 143.043 58.8423 142.397C58.8789 142.376 58.9156 142.356 58.9525 142.336ZM52.9733 137.937C41.8507 128.68 34.0222 115.601 31.5053 100.716C30.3384 101.029 29.1427 101.142 27.9669 101.064C30.5977 116.994 38.9788 130.984 50.9068 140.831C51.426 139.773 52.1199 138.792 52.9733 137.937ZM27.1695 93.5909C28.1998 94.0576 29.4549 94.0443 30.5579 93.4074C30.6087 93.3781 30.6585 93.3479 30.7073 93.3167C30.6599 92.3227 30.6359 91.3226 30.6359 90.3169C30.6359 89.2703 30.6619 88.2297 30.7132 87.1959C29.6837 86.5843 28.3527 86.4919 27.1672 87.0891C27.1153 88.1585 27.089 89.2346 27.089 90.3169C27.089 91.4147 27.1161 92.5063 27.1695 93.5909Z" fill="white"/>
<path d="M67.1079 31.4809C69.0888 34.9119 67.8729 39.3225 64.3921 41.3321C60.9113 43.3418 56.4837 42.1895 54.5028 38.7584C52.5219 35.3273 53.7378 30.9168 57.2185 28.9071C60.6993 26.8975 65.1269 28.0498 67.1079 31.4809Z" fill="white"/>
<path d="M66.9384 141.865C68.9194 145.296 67.7035 149.707 64.2227 151.716C60.7419 153.726 56.3143 152.574 54.3334 149.143C52.3524 145.712 53.5683 141.301 57.0491 139.291C60.5299 137.282 64.9575 138.434 66.9384 141.865Z" fill="white"/>
<path d="M162.611 86.6288C164.592 90.0599 163.376 94.4704 159.895 96.4801C156.414 98.4897 151.987 97.3374 150.006 93.9063C148.025 90.4753 149.241 86.0647 152.721 84.0551C156.202 82.0454 160.63 83.1977 162.611 86.6288Z" fill="white"/>
<path d="M35.0671 86.6625C37.048 90.0936 35.8321 94.5041 32.3513 96.5138C28.8706 98.5234 24.443 97.3711 22.462 93.94C20.4811 90.509 21.697 86.0984 25.1778 84.0888C28.6586 82.0791 33.0862 83.2314 35.0671 86.6625Z" fill="white"/>
<path d="M130.815 141.669C132.796 145.1 131.58 149.511 128.099 151.521C124.618 153.53 120.191 152.378 118.21 148.947C116.229 145.516 117.445 141.105 120.925 139.096C124.406 137.086 128.834 138.238 130.815 141.669Z" fill="white"/>
<path d="M130.74 31.4262C132.721 34.8572 131.505 39.2678 128.024 41.2774C124.543 43.2871 120.116 42.1348 118.135 38.7037C116.154 35.2726 117.37 30.8621 120.85 28.8524C124.331 26.8428 128.759 27.9951 130.74 31.4262Z" fill="white"/>
<g clip-path="url(#clip1_1786_7666)">
<path d="M92.4854 97.6311C96.5957 97.6311 99.9278 94.3234 99.9278 90.2433C99.9278 86.1631 96.5957 82.8555 92.4854 82.8555C88.3751 82.8555 85.043 86.1631 85.043 90.2433C85.043 94.3234 88.3751 97.6311 92.4854 97.6311Z" fill="white"/>
<path fill-rule="evenodd" clip-rule="evenodd" d="M56.9052 85.6895C55.1088 87.2992 54.3658 88.8412 54.3658 90.2435C54.3658 91.6459 55.1088 93.1878 56.9052 94.7976C58.7014 96.4072 61.4025 97.9393 64.8947 99.2629C71.8667 101.905 81.621 103.578 92.4855 103.578C103.35 103.578 113.104 101.905 120.076 99.2629C123.569 97.9393 126.27 96.4072 128.066 94.7976C129.862 93.1878 130.605 91.6459 130.605 90.2435C130.605 88.8412 129.862 87.2992 128.066 85.6895C126.27 84.0799 123.569 82.5478 120.076 81.2242C113.104 78.5817 103.35 76.9095 92.4855 76.9095C81.621 76.9095 71.8667 78.5817 64.8947 81.2242C61.4025 82.5478 58.7014 84.0799 56.9052 85.6895ZM63.5998 77.8574C71.0814 75.0218 81.2946 73.3057 92.4855 73.3057C103.676 73.3057 113.89 75.0218 121.371 77.8574C125.106 79.2729 128.253 81.0023 130.499 83.0144C132.744 85.0263 134.236 87.4662 134.236 90.2435C134.236 93.0209 132.744 95.4607 130.499 97.4727C128.253 99.4848 125.106 101.214 121.371 102.63C113.89 105.465 103.676 107.181 92.4855 107.181C81.2946 107.181 71.0814 105.465 63.5998 102.63C59.8652 101.214 56.7179 99.4848 54.4725 97.4727C52.2273 95.4607 50.7354 93.0209 50.7354 90.2435C50.7354 87.4662 52.2273 85.0263 54.4725 83.0144C56.7179 81.0023 59.8652 79.2729 63.5998 77.8574Z" fill="white"/>
<path fill-rule="evenodd" clip-rule="evenodd" d="M78.6684 57.3792C76.3658 56.6398 74.649 56.772 73.4256 57.4732C72.2021 58.1744 71.2284 59.5841 70.7222 61.9333C70.2161 64.2822 70.2299 67.3703 70.8213 71.0343C72.0019 78.3491 75.4202 87.5707 80.8524 96.9106C86.2847 106.25 92.6207 113.8 98.4121 118.472C101.313 120.813 104 122.368 106.303 123.108C108.605 123.847 110.322 123.715 111.545 123.014C112.769 122.313 113.743 120.903 114.249 118.554C114.755 116.205 114.741 113.117 114.15 109.453C112.969 102.138 109.551 92.9164 104.118 83.5765C98.6862 74.2366 92.3502 66.6873 86.5588 62.0149C83.658 59.6746 80.9707 58.1186 78.6684 57.3792ZM88.8486 59.2183C95.0633 64.2322 101.667 72.1541 107.263 81.7746C112.858 91.3951 116.467 101.033 117.734 108.883C118.367 112.801 118.432 116.371 117.799 119.308C117.166 122.244 115.784 124.746 113.361 126.135C110.938 127.524 108.063 127.461 105.185 126.537C102.307 125.612 99.2245 123.772 96.1223 121.269C89.9076 116.255 83.3038 108.333 77.7084 98.7125C72.1129 89.0919 68.5035 79.454 67.2366 71.6044C66.6042 67.6862 66.5393 64.1159 67.172 61.1795C67.8047 58.2434 69.1873 55.7409 71.6104 54.3522C74.0334 52.9636 76.908 53.0262 79.7859 53.9504C82.664 54.8747 85.7464 56.7155 88.8486 59.2183Z" fill="white"/>
<path fill-rule="evenodd" clip-rule="evenodd" d="M114.249 61.9329C113.743 59.5837 112.769 58.174 111.545 57.4729C110.322 56.7717 108.605 56.6394 106.303 57.3789C104 58.1182 101.313 59.6742 98.4121 62.0146C92.6208 66.6869 86.2847 74.2363 80.8525 83.5761C75.4202 92.916 72.002 102.138 70.8214 109.452C70.23 113.116 70.2161 116.204 70.7223 118.553C71.2284 120.903 72.2022 122.312 73.4257 123.014C74.6491 123.715 76.3659 123.847 78.6685 123.107C80.9708 122.368 83.658 120.812 86.5589 118.472C92.3503 113.799 98.6863 106.25 104.119 96.9102C109.551 87.5703 112.969 78.3488 114.15 71.0339C114.741 67.37 114.755 64.2819 114.249 61.9329ZM117.734 71.6041C116.468 79.4536 112.858 89.0916 107.263 98.7121C101.667 108.333 95.0634 116.255 88.8486 121.268C85.7465 123.771 82.6641 125.612 79.7859 126.536C76.908 127.461 74.0335 127.523 71.6104 126.134C69.1874 124.746 67.8048 122.243 67.1721 119.307C66.5394 116.371 66.6042 112.801 67.2366 108.882C68.5035 101.033 72.1129 91.3948 77.7084 81.7742C83.3039 72.1537 89.9077 64.2318 96.1224 59.2179C99.2246 56.7152 102.307 54.8743 105.185 53.95C108.063 53.0258 110.938 52.9632 113.361 54.3519C115.784 55.7405 117.166 58.243 117.799 61.1792C118.432 64.1155 118.367 67.6858 117.734 71.6041Z" fill="white"/>
</g>
</g>
<defs>
<clipPath id="clip0_1786_7666">
<rect width="143.355" height="143.355" fill="white" transform="translate(20.8821 18.4922)"/>
</clipPath>
<clipPath id="clip1_1786_7666">
<rect width="83.5003" height="73.7463" fill="white" transform="translate(50.7354 53.3701)"/>
</clipPath>
</defs>
</svg>
