<svg width="2355" height="1058" viewBox="0 0 2355 1058" fill="none" xmlns="http://www.w3.org/2000/svg">
<path d="M1093.07 509V371.375H1146.01C1157.96 371.375 1168.61 372.542 1177.95 374.877C1187.43 377.212 1194.84 381.47 1200.2 387.651C1205.69 393.831 1208.44 402.622 1208.44 414.022C1208.44 419.241 1207.48 424.461 1205.56 429.68C1203.63 434.762 1200.27 439.432 1195.46 443.69C1190.79 447.948 1184.06 451.244 1175.27 453.579L1215.24 509H1177.54L1140.25 457.081H1125.62V509H1093.07ZM1125.62 429.886H1147.04C1154.74 429.886 1161.12 428.925 1166.2 427.002C1171.42 424.941 1174.03 420.752 1174.03 414.434C1174.03 407.979 1171.42 403.789 1166.2 401.866C1161.12 399.806 1154.74 398.776 1147.04 398.776H1125.62V429.886ZM1271.54 511.472C1260.56 511.472 1250.8 509.343 1242.29 505.086C1233.91 500.69 1227.32 494.441 1222.51 486.337C1217.84 478.233 1215.51 468.55 1215.51 457.287C1215.51 446.437 1217.98 437.028 1222.92 429.062C1228 421.096 1234.67 414.915 1242.91 410.52C1251.29 406.124 1260.42 403.927 1270.31 403.927C1281.57 403.927 1291.19 406.605 1299.15 411.962C1307.26 417.181 1313.37 424.461 1317.49 433.8C1321.61 443.003 1323.33 453.648 1322.64 465.735H1247.03C1247.58 472.877 1250.19 478.233 1254.86 481.805C1259.66 485.376 1264.95 487.161 1270.72 487.161C1275.53 487.161 1279.65 486.474 1283.08 485.101C1286.65 483.59 1289.4 481.736 1291.32 479.538L1316.25 488.603C1310.9 496.432 1304.17 502.201 1296.06 505.91C1288.1 509.618 1279.92 511.472 1271.54 511.472ZM1247.03 447.192H1293.59C1293.45 440.599 1291.19 435.655 1286.79 432.358C1282.4 428.925 1277.18 427.208 1271.13 427.208C1265.23 427.208 1259.94 428.787 1255.27 431.946C1250.74 435.105 1247.99 440.187 1247.03 447.192ZM1359.19 511.472C1352.73 511.472 1346.83 510.236 1341.47 507.764C1336.11 505.292 1331.86 501.858 1328.7 497.463C1325.54 492.93 1323.96 487.573 1323.96 481.392C1323.96 473.014 1326.84 466.353 1332.61 461.408C1338.52 456.463 1346.55 452.755 1356.72 450.283C1366.88 447.81 1378.56 446.093 1391.74 445.132C1391.74 437.852 1390.57 432.702 1388.24 429.68C1385.9 426.658 1381.37 425.147 1374.64 425.147C1370.38 425.147 1366.61 426.177 1363.31 428.238C1360.15 430.161 1358.02 433.182 1356.92 437.303L1330.55 427.826C1333.99 420.958 1339.69 415.258 1347.65 410.726C1355.76 406.193 1365.65 403.927 1377.32 403.927C1391.88 403.927 1403.07 407.154 1410.9 413.61C1418.73 420.065 1422.65 431.053 1422.65 446.574V469.031C1422.65 473.426 1422.78 478.165 1423.06 483.247C1423.33 488.329 1423.74 493.136 1424.29 497.669C1424.84 502.201 1425.46 505.978 1426.15 509H1397.1L1393.39 496.638C1389.54 501.995 1384.67 505.841 1378.76 508.176C1372.99 510.374 1366.47 511.472 1359.19 511.472ZM1370.73 490.046C1376.91 490.046 1382.06 488.397 1386.18 485.101C1390.3 481.805 1392.36 475.486 1392.36 466.147V463.674C1381.51 464.636 1372.79 466.147 1366.19 468.207C1359.6 470.13 1356.31 473.77 1356.31 479.126C1356.31 482.423 1357.68 485.101 1360.43 487.161C1363.17 489.084 1366.61 490.046 1370.73 490.046ZM1481.93 511.472C1470.66 511.472 1461.12 509.206 1453.29 504.673C1445.6 500.141 1439.69 493.823 1435.57 485.719C1431.59 477.478 1429.6 468.001 1429.6 457.287C1429.6 446.574 1431.79 437.234 1436.19 429.268C1440.58 421.164 1446.7 414.915 1454.53 410.52C1462.49 406.124 1471.63 403.927 1481.93 403.927C1487.83 403.927 1493.67 404.751 1499.44 406.399C1505.34 408.047 1510.77 410.863 1515.71 414.846C1520.8 418.692 1524.92 423.98 1528.08 430.71L1501.91 440.187C1500.26 435.792 1497.79 432.702 1494.49 430.916C1491.34 429.131 1487.76 428.238 1483.78 428.238C1480.07 428.238 1476.5 429.199 1473.07 431.122C1469.63 432.908 1466.82 435.929 1464.62 440.187C1462.56 444.445 1461.53 450.214 1461.53 457.493C1461.53 464.91 1462.63 470.816 1464.83 475.212C1467.02 479.47 1469.77 482.56 1473.07 484.483C1476.5 486.268 1480.07 487.161 1483.78 487.161C1488.18 487.161 1491.88 486.337 1494.91 484.689C1497.93 482.903 1500.33 480.5 1502.12 477.478L1527.66 486.749C1524.23 492.93 1519.97 497.875 1514.89 501.583C1509.81 505.154 1504.38 507.695 1498.61 509.206C1492.98 510.717 1487.42 511.472 1481.93 511.472ZM1576.81 509C1568.43 509 1561.77 508.313 1556.82 506.94C1551.88 505.429 1548.31 502.613 1546.11 498.493C1544.05 494.235 1543.02 488.123 1543.02 480.156V430.71H1526.13V406.811H1543.02V381.264H1574.34V406.811H1596.59V430.71H1574.34V471.915C1574.34 476.723 1575.23 479.882 1577.01 481.392C1578.94 482.766 1582.44 483.453 1587.52 483.453H1596.59V509H1576.81ZM1156.73 716.472C1143.68 716.472 1132.48 713.451 1123.14 707.407C1113.81 701.226 1106.66 692.779 1101.72 682.066C1096.77 671.353 1094.3 658.991 1094.3 644.981C1094.3 630.697 1096.91 618.267 1102.13 607.691C1107.49 596.977 1114.97 588.667 1124.59 582.761C1134.2 576.855 1145.46 573.902 1158.38 573.902C1169.91 573.902 1180.28 576.581 1189.49 581.937C1198.83 587.294 1205.83 594.986 1210.5 605.012L1193.61 611.193C1190.58 605.012 1185.98 599.999 1179.8 596.153C1173.76 592.17 1166.27 590.178 1157.35 590.178C1149.24 590.178 1141.89 592.239 1135.3 596.359C1128.85 600.48 1123.69 606.66 1119.85 614.901C1116 623.005 1114.08 633.032 1114.08 644.981C1114.08 656.519 1115.93 666.408 1119.64 674.649C1123.35 682.89 1128.5 689.208 1135.09 693.603C1141.82 697.999 1149.45 700.196 1157.96 700.196C1166.89 700.196 1174.38 698.273 1180.42 694.428C1186.6 690.582 1191.27 685.5 1194.43 679.182L1211.32 685.362C1206.38 695.526 1199.1 703.287 1189.49 708.643C1179.87 713.863 1168.95 716.472 1156.73 716.472ZM1267.83 716.472C1261.92 716.472 1256.08 715.442 1250.31 713.382C1244.55 711.322 1239.26 708.163 1234.45 703.905C1229.78 699.509 1226 693.947 1223.12 687.217C1220.23 680.486 1218.79 672.52 1218.79 663.318C1218.79 654.115 1220.23 646.149 1223.12 639.419C1226 632.688 1229.78 627.194 1234.45 622.936C1239.26 618.541 1244.55 615.313 1250.31 613.253C1256.08 611.193 1261.92 610.163 1267.83 610.163C1273.73 610.163 1279.57 611.193 1285.34 613.253C1291.25 615.313 1296.53 618.541 1301.2 622.936C1306.01 627.194 1309.79 632.688 1312.53 639.419C1315.42 646.149 1316.86 654.115 1316.86 663.318C1316.86 672.52 1315.42 680.486 1312.53 687.217C1309.79 693.947 1306.01 699.509 1301.2 703.905C1296.53 708.163 1291.25 711.322 1285.34 713.382C1279.57 715.442 1273.73 716.472 1267.83 716.472ZM1267.83 701.226C1272.77 701.226 1277.58 699.922 1282.25 697.312C1286.92 694.565 1290.76 690.444 1293.79 684.95C1296.81 679.319 1298.32 672.108 1298.32 663.318C1298.32 654.527 1296.81 647.385 1293.79 641.891C1290.76 636.259 1286.92 632.139 1282.25 629.529C1277.58 626.782 1272.77 625.409 1267.83 625.409C1263.02 625.409 1258.21 626.782 1253.4 629.529C1248.74 632.139 1244.89 636.259 1241.87 641.891C1238.85 647.385 1237.33 654.527 1237.33 663.318C1237.33 672.108 1238.85 679.319 1241.87 684.95C1244.89 690.444 1248.74 694.565 1253.4 697.312C1258.21 699.922 1263.02 701.226 1267.83 701.226ZM1330.82 714V611.811H1343.59L1348.13 627.263C1351.01 622.456 1355.06 618.404 1360.28 615.107C1365.5 611.811 1372.44 610.163 1381.09 610.163C1393.45 610.163 1402.17 613.803 1407.26 621.082C1412.34 628.224 1414.88 637.633 1414.88 649.308V714H1397.57V654.458C1397.57 649.239 1397.09 644.432 1396.13 640.037C1395.17 635.504 1393.04 631.864 1389.74 629.117C1386.59 626.37 1381.71 624.997 1375.12 624.997C1366.74 624.997 1360.15 627.881 1355.34 633.65C1350.53 639.281 1348.13 647.591 1348.13 658.579V714H1330.82ZM1435.05 714V611.811H1447.82L1452.36 627.263C1455.24 622.456 1459.29 618.404 1464.51 615.107C1469.73 611.811 1476.67 610.163 1485.32 610.163C1497.68 610.163 1506.4 613.803 1511.48 621.082C1516.57 628.224 1519.11 637.633 1519.11 649.308V714H1501.8V654.458C1501.8 649.239 1501.32 644.432 1500.36 640.037C1499.4 635.504 1497.27 631.864 1493.97 629.117C1490.81 626.37 1485.94 624.997 1479.34 624.997C1470.97 624.997 1464.37 627.881 1459.57 633.65C1454.76 639.281 1452.36 647.591 1452.36 658.579V714H1435.05ZM1580.54 716.472C1569.82 716.472 1560.76 714.137 1553.34 709.467C1545.92 704.66 1540.22 698.273 1536.24 690.307C1532.39 682.203 1530.47 673.138 1530.47 663.112C1530.47 652.261 1532.67 642.921 1537.06 635.092C1541.46 627.126 1547.37 621.014 1554.78 616.756C1562.34 612.36 1570.78 610.163 1580.12 610.163C1588.23 610.163 1595.37 611.811 1601.55 615.107C1607.73 618.267 1612.81 622.593 1616.8 628.087C1620.92 633.444 1623.87 639.556 1625.66 646.423C1627.58 653.291 1628.27 660.365 1627.72 667.644H1549.01C1549.29 676.16 1551.14 682.89 1554.58 687.835C1558.15 692.779 1562.34 696.282 1567.14 698.342C1571.95 700.265 1576.42 701.226 1580.54 701.226C1586.3 701.226 1591.11 700.334 1594.96 698.548C1598.94 696.625 1602.1 694.153 1604.43 691.131L1621.12 696.076C1617.41 701.982 1612.13 706.858 1605.26 710.704C1598.39 714.549 1590.15 716.472 1580.54 716.472ZM1549.22 653.84H1609.38C1609.38 649.033 1608.14 644.432 1605.67 640.037C1603.34 635.641 1599.97 632.07 1595.58 629.323C1591.32 626.439 1586.17 624.997 1580.12 624.997C1575.04 624.997 1570.23 625.958 1565.7 627.881C1561.17 629.804 1557.39 632.894 1554.37 637.152C1551.49 641.41 1549.77 646.973 1549.22 653.84ZM1680.88 716.472C1671.13 716.472 1662.68 714.206 1655.54 709.673C1648.4 705.004 1642.91 698.685 1639.06 690.719C1635.21 682.753 1633.29 673.619 1633.29 663.318C1633.29 653.154 1635.28 644.088 1639.27 636.122C1643.39 628.018 1649.16 621.7 1656.57 617.168C1663.99 612.498 1672.71 610.163 1682.74 610.163C1691.94 610.163 1699.84 612.429 1706.43 616.962C1713.02 621.494 1717.97 626.92 1721.26 633.238L1705.4 639.006C1703.2 634.886 1699.98 631.59 1695.72 629.117C1691.46 626.645 1686.72 625.409 1681.5 625.409C1676.42 625.409 1671.61 626.782 1667.08 629.529C1662.55 632.139 1658.91 636.259 1656.16 641.891C1653.41 647.385 1652.04 654.458 1652.04 663.112C1652.04 671.627 1653.41 678.77 1656.16 684.538C1659.04 690.17 1662.68 694.359 1667.08 697.106C1671.61 699.853 1676.42 701.226 1681.5 701.226C1687.13 701.226 1692.01 699.99 1696.13 697.518C1700.39 694.908 1703.61 691.681 1705.81 687.835L1721.68 693.603C1717.83 700.196 1712.34 705.69 1705.19 710.086C1698.05 714.343 1689.95 716.472 1680.88 716.472ZM1765.77 714C1759.31 714 1754.3 713.382 1750.73 712.146C1747.29 710.772 1744.89 708.231 1743.52 704.523C1742.28 700.814 1741.66 695.458 1741.66 688.453V625.615H1724.35V611.811H1741.66V586.058H1758.97V611.811H1778.75V625.615H1758.97V685.568C1758.97 690.788 1759.45 694.29 1760.41 696.076C1761.51 697.861 1764.53 698.754 1769.47 698.754H1778.75V714H1765.77ZM1810.93 592.445C1807.5 592.445 1804.48 591.208 1801.87 588.736C1799.39 586.126 1798.16 583.036 1798.16 579.465C1798.16 575.894 1799.39 572.872 1801.87 570.4C1804.48 567.927 1807.5 566.691 1810.93 566.691C1814.5 566.691 1817.52 567.927 1820 570.4C1822.61 572.872 1823.91 575.894 1823.91 579.465C1823.91 583.036 1822.61 586.126 1820 588.736C1817.52 591.208 1814.5 592.445 1810.93 592.445ZM1802.28 714V625.615H1788.06V611.811H1819.58V714H1802.28ZM1884.75 716.472C1878.85 716.472 1873.01 715.442 1867.24 713.382C1861.47 711.322 1856.19 708.163 1851.38 703.905C1846.71 699.509 1842.93 693.947 1840.05 687.217C1837.16 680.486 1835.72 672.52 1835.72 663.318C1835.72 654.115 1837.16 646.149 1840.05 639.419C1842.93 632.688 1846.71 627.194 1851.38 622.936C1856.19 618.541 1861.47 615.313 1867.24 613.253C1873.01 611.193 1878.85 610.163 1884.75 610.163C1890.66 610.163 1896.5 611.193 1902.27 613.253C1908.17 615.313 1913.46 618.541 1918.13 622.936C1922.94 627.194 1926.71 632.688 1929.46 639.419C1932.35 646.149 1933.79 654.115 1933.79 663.318C1933.79 672.52 1932.35 680.486 1929.46 687.217C1926.71 693.947 1922.94 699.509 1918.13 703.905C1913.46 708.163 1908.17 711.322 1902.27 713.382C1896.5 715.442 1890.66 716.472 1884.75 716.472ZM1884.75 701.226C1889.7 701.226 1894.51 699.922 1899.18 697.312C1903.85 694.565 1907.69 690.444 1910.71 684.95C1913.74 679.319 1915.25 672.108 1915.25 663.318C1915.25 654.527 1913.74 647.385 1910.71 641.891C1907.69 636.259 1903.85 632.139 1899.18 629.529C1894.51 626.782 1889.7 625.409 1884.75 625.409C1879.95 625.409 1875.14 626.782 1870.33 629.529C1865.66 632.139 1861.82 636.259 1858.8 641.891C1855.77 647.385 1854.26 654.527 1854.26 663.318C1854.26 672.108 1855.77 679.319 1858.8 684.95C1861.82 690.444 1865.66 694.565 1870.33 697.312C1875.14 699.922 1879.95 701.226 1884.75 701.226ZM1947.75 714V611.811H1960.52L1965.05 627.263C1967.94 622.456 1971.99 618.404 1977.21 615.107C1982.43 611.811 1989.37 610.163 1998.02 610.163C2010.38 610.163 2019.1 613.803 2024.18 621.082C2029.27 628.224 2031.81 637.633 2031.81 649.308V714H2014.5V654.458C2014.5 649.239 2014.02 644.432 2013.06 640.037C2012.1 635.504 2009.97 631.864 2006.67 629.117C2003.51 626.37 1998.64 624.997 1992.04 624.997C1983.67 624.997 1977.07 627.881 1972.27 633.65C1967.46 639.281 1965.05 647.591 1965.05 658.579V714H1947.75Z" fill="white"/>
<g clip-path="url(#clip0_2940_8802)">
<path fill-rule="evenodd" clip-rule="evenodd" d="M333.479 206.631C333.513 210.12 334.412 213.608 336.231 216.758C338.171 220.118 340.967 222.765 344.231 224.549C354.67 217.795 365.477 211.561 376.614 205.882C376.706 202.153 375.812 198.398 373.867 195.029C372.053 191.887 369.491 189.369 366.497 187.596C355.153 193.407 344.136 199.764 333.479 206.631ZM297.177 233.136C297.929 234.735 298.755 236.316 299.655 237.875C302.342 242.529 305.527 246.703 309.103 250.372C243.637 304.789 197.526 381.689 182.618 469.223C175.843 467.513 168.782 466.91 161.733 467.479C177.273 373.561 226.764 291.103 297.177 233.136ZM407.637 169.48C408.624 170.905 409.56 172.382 410.443 173.912C413.149 178.599 415.181 183.479 416.572 188.447C455.68 174.118 497.927 166.297 542.001 166.297C586.398 166.297 628.941 174.232 668.289 188.763C670.204 182.041 673.22 175.626 677.247 169.808C635.164 154.038 589.59 145.414 542.001 145.414C494.745 145.414 449.474 153.918 407.637 169.48ZM718.109 187.905C729.464 193.748 740.493 200.138 751.158 207.041C750.527 213.698 746.761 220.096 740.24 223.86C739.965 224.019 739.689 224.171 739.411 224.317C729.31 217.798 718.865 211.765 708.111 206.251C708.062 199.203 711.543 192.161 718.109 187.905ZM774.706 250.211C779.739 245.185 783.834 239.421 786.903 233.2C857.21 291.11 906.645 373.445 922.227 467.222C915.303 466.746 908.259 467.387 901.382 469.21C886.457 381.595 840.271 304.635 774.706 250.211ZM906.13 549.023C906.425 543.009 906.574 536.957 906.574 530.87C906.574 524.767 906.424 518.699 906.128 512.67C906.337 512.54 906.549 512.413 906.764 512.289C913.35 508.487 920.856 508.46 926.97 511.327C927.293 517.801 927.457 524.316 927.457 530.87C927.457 537.061 927.311 543.218 927.022 549.337C920.076 552.963 912.238 552.525 906.13 549.023ZM901.436 592.212C886.682 679.292 841.051 755.868 776.198 810.283C779.722 813.92 782.863 818.049 785.518 822.648C786.452 824.266 787.306 825.907 788.08 827.566C857.929 769.57 906.967 687.378 922.338 593.847C915.287 594.454 908.221 593.887 901.436 592.212ZM751.693 854.351C741.216 861.157 730.387 867.468 719.241 873.25C716.004 871.465 713.233 868.832 711.305 865.494C709.468 862.312 708.569 858.785 708.553 855.262C719.829 849.461 730.763 843.089 741.318 836.184C744.421 837.964 747.077 840.534 748.942 843.765C750.841 847.054 751.737 850.71 751.693 854.351ZM668.804 872.786C670.187 877.509 672.153 882.148 674.729 886.611C675.741 888.363 676.822 890.046 677.969 891.66C635.686 907.603 589.862 916.326 542.001 916.326C494.252 916.326 448.531 907.643 406.33 891.771C410.382 885.969 413.426 879.564 415.37 872.85C454.814 887.461 497.475 895.443 542.001 895.443C586.592 895.443 629.312 887.438 668.804 872.786ZM344.142 837.133C354.299 843.708 364.804 849.792 375.623 855.351C375.589 862.391 372.036 869.394 365.411 873.586C354.123 867.758 343.161 861.388 332.557 854.512C333.131 847.784 336.907 841.296 343.493 837.494C343.708 837.369 343.925 837.249 344.142 837.133ZM308.939 811.231C243.455 756.734 197.365 679.729 182.546 592.092C175.676 593.936 168.636 594.6 161.714 594.146C177.203 687.932 226.546 770.298 296.772 828.271C299.83 822.042 303.915 816.268 308.939 811.231ZM157.019 550.145C163.085 552.893 170.475 552.815 176.969 549.065C177.268 548.893 177.561 548.715 177.848 548.531C177.569 542.679 177.428 536.791 177.428 530.87C177.428 524.708 177.581 518.582 177.883 512.495C171.822 508.894 163.985 508.35 157.006 511.866C156.7 518.162 156.546 524.498 156.546 530.87C156.546 537.333 156.705 543.76 157.019 550.145Z" fill="white"/>
<path d="M392.154 184.47C403.816 204.671 396.658 230.638 376.165 242.47C355.672 254.301 329.604 247.517 317.941 227.317C306.279 207.116 313.437 181.149 333.93 169.317C354.424 157.486 380.491 164.27 392.154 184.47Z" fill="white"/>
<path d="M391.158 834.358C402.82 854.559 395.662 880.526 375.169 892.358C354.676 904.19 328.608 897.405 316.945 877.205C305.283 857.005 312.441 831.037 332.934 819.206C353.427 807.374 379.495 814.158 391.158 834.358Z" fill="white"/>
<path d="M954.427 509.154C966.09 529.354 958.931 555.321 938.438 567.153C917.945 578.985 891.878 572.201 880.215 552C868.552 531.8 875.711 505.833 896.204 494.001C916.697 482.169 942.764 488.953 954.427 509.154Z" fill="white"/>
<path d="M203.517 509.354C215.18 529.554 208.021 555.522 187.528 567.353C167.035 579.185 140.967 572.401 129.305 552.201C117.642 532 124.8 506.033 145.294 494.201C165.787 482.37 191.854 489.154 203.517 509.354Z" fill="white"/>
<path d="M767.228 833.206C778.891 853.407 771.732 879.374 751.239 891.205C730.746 903.037 704.678 896.253 693.016 876.053C681.353 855.852 688.511 829.885 709.005 818.053C729.498 806.222 755.565 813.006 767.228 833.206Z" fill="white"/>
<path d="M766.787 184.149C778.449 204.35 771.291 230.317 750.798 242.149C730.304 253.981 704.237 247.196 692.574 226.996C680.912 206.796 688.07 180.828 708.563 168.997C729.056 157.165 755.124 163.949 766.787 184.149Z" fill="white"/>
<g clip-path="url(#clip1_2940_8802)">
<path d="M541.567 573.931C565.767 573.931 585.385 554.457 585.385 530.435C585.385 506.413 565.767 486.939 541.567 486.939C517.368 486.939 497.75 506.413 497.75 530.435C497.75 554.457 517.368 573.931 541.567 573.931Z" fill="white"/>
<path fill-rule="evenodd" clip-rule="evenodd" d="M332.087 503.623C321.51 513.1 317.136 522.179 317.136 530.435C317.136 538.691 321.51 547.77 332.087 557.247C342.662 566.723 358.565 575.744 379.125 583.537C420.173 599.094 477.601 608.939 541.566 608.939C605.531 608.939 662.959 599.094 704.007 583.537C724.567 575.744 740.47 566.723 751.045 557.247C761.621 547.77 765.996 538.691 765.996 530.435C765.996 522.179 761.621 513.1 751.045 503.623C740.47 494.147 724.567 485.126 704.007 477.333C662.959 461.776 605.531 451.931 541.566 451.931C477.601 451.931 420.173 461.776 379.125 477.333C358.565 485.126 342.662 494.147 332.087 503.623ZM371.501 457.512C415.549 440.817 475.679 430.713 541.566 430.713C607.453 430.713 667.583 440.817 711.631 457.512C733.618 465.845 752.148 476.027 765.367 487.874C778.586 499.719 787.37 514.083 787.37 530.435C787.37 546.787 778.586 561.151 765.367 572.997C752.148 584.843 733.618 595.025 711.631 603.358C667.583 620.053 607.453 630.157 541.566 630.157C475.679 630.157 415.549 620.053 371.501 603.358C349.514 595.025 330.984 584.843 317.764 572.997C304.546 561.151 295.762 546.787 295.762 530.435C295.762 514.083 304.546 499.719 317.764 487.874C330.984 476.027 349.514 465.845 371.501 457.512Z" fill="white"/>
<path fill-rule="evenodd" clip-rule="evenodd" d="M460.218 336.946C446.662 332.593 436.554 333.372 429.351 337.5C422.148 341.628 416.415 349.928 413.435 363.759C410.455 377.588 410.537 395.769 414.018 417.341C420.969 460.407 441.094 514.699 473.077 569.687C505.059 624.676 542.362 669.123 576.459 696.631C593.538 710.41 609.359 719.571 622.914 723.924C636.471 728.277 646.578 727.499 653.781 723.37C660.984 719.242 666.717 710.942 669.697 697.112C672.677 683.282 672.595 665.101 669.114 643.529C662.163 600.463 642.038 546.171 610.055 491.183C578.073 436.194 540.77 391.748 506.673 364.239C489.594 350.46 473.773 341.299 460.218 336.946ZM520.154 347.774C556.743 377.293 595.623 423.933 628.566 480.574C661.51 537.215 682.76 593.959 690.219 640.173C693.942 663.242 694.324 684.262 690.599 701.549C686.874 718.836 678.734 733.569 664.468 741.745C650.203 749.921 633.278 749.552 616.335 744.111C599.39 738.669 581.242 727.831 562.978 713.096C526.389 683.577 487.509 636.937 454.566 580.296C421.622 523.655 400.372 466.911 392.913 420.697C389.19 397.629 388.808 376.609 392.533 359.321C396.258 342.034 404.398 327.301 418.664 319.125C432.93 310.949 449.854 311.318 466.797 316.759C483.742 322.201 501.89 333.039 520.154 347.774Z" fill="white"/>
<path fill-rule="evenodd" clip-rule="evenodd" d="M669.698 363.759C666.718 349.928 660.985 341.628 653.781 337.5C646.578 333.372 636.471 332.593 622.914 336.946C609.359 341.299 593.538 350.46 576.46 364.239C542.363 391.748 505.059 436.194 473.077 491.183C441.095 546.171 420.97 600.463 414.019 643.529C410.537 665.101 410.455 683.282 413.435 697.112C416.416 710.943 422.149 719.242 429.352 723.37C436.555 727.499 446.662 728.277 460.219 723.924C473.774 719.571 489.595 710.41 506.674 696.631C540.77 669.123 578.074 624.676 610.056 569.687C642.038 514.699 662.163 460.407 669.114 417.341C672.596 395.769 672.678 377.588 669.698 363.759ZM690.219 420.697C682.76 466.911 661.51 523.655 628.567 580.296C595.623 636.937 556.744 683.577 520.154 713.096C501.89 727.831 483.743 738.669 466.798 744.111C449.854 749.552 432.93 749.921 418.664 741.745C404.399 733.569 396.259 718.836 392.534 701.55C388.809 684.262 389.19 663.242 392.914 640.173C400.373 593.959 421.623 537.215 454.566 480.574C487.51 423.933 526.39 377.293 562.979 347.774C581.243 333.039 599.39 322.201 616.335 316.759C633.279 311.318 650.203 310.949 664.469 319.125C678.734 327.301 686.875 342.034 690.599 359.321C694.324 376.609 693.943 397.629 690.219 420.697Z" fill="white"/>
</g>
</g>
<defs>
<clipPath id="clip0_2940_8802">
<rect width="844" height="844" fill="white" transform="translate(120 108)"/>
</clipPath>
<clipPath id="clip1_2940_8802">
<rect width="491.608" height="434.181" fill="white" transform="translate(295.762 313.344)"/>
</clipPath>
</defs>
</svg>
