<svg width="2355" height="1058" viewBox="0 0 2355 1058" fill="none" xmlns="http://www.w3.org/2000/svg">
<g clip-path="url(#clip0_968_2330)">
<path d="M1162.67 516.11C1148.32 516.11 1135.84 514.077 1125.23 510.009C1114.7 505.862 1106.45 499.921 1100.47 492.185C1094.56 484.449 1091.25 475.078 1090.54 464.072L1090.42 461.918H1131.21L1131.45 463.115C1132.25 466.863 1134.08 470.133 1136.95 472.924C1139.9 475.636 1143.65 477.789 1148.2 479.384C1152.74 480.9 1157.81 481.657 1163.39 481.657C1169.21 481.657 1174.2 480.9 1178.34 479.384C1182.57 477.789 1185.84 475.636 1188.15 472.924C1190.47 470.213 1191.62 467.062 1191.62 463.474V463.354C1191.62 458.489 1189.51 454.741 1185.28 452.109C1181.06 449.397 1173.88 447.084 1163.75 445.17L1146.04 441.701C1128.98 438.511 1115.98 432.769 1107.05 424.475C1098.19 416.101 1093.77 405.294 1093.77 392.055V391.936C1093.77 380.85 1096.72 371.24 1102.62 363.105C1108.52 354.89 1116.62 348.55 1126.9 344.084C1137.27 339.538 1149.04 337.265 1162.19 337.265C1176.63 337.265 1188.91 339.418 1199.04 343.725C1209.17 347.952 1216.98 353.933 1222.49 361.669C1228.07 369.405 1231.1 378.497 1231.58 388.945L1231.7 391.457H1190.91L1190.79 390.141C1190.31 386.313 1188.83 383.043 1186.36 380.332C1183.89 377.62 1180.62 375.507 1176.55 373.991C1172.48 372.476 1167.82 371.718 1162.55 371.718C1157.21 371.718 1152.66 372.476 1148.92 373.991C1145.17 375.507 1142.3 377.58 1140.3 380.212C1138.39 382.764 1137.43 385.675 1137.43 388.945V389.064C1137.43 393.69 1139.54 397.359 1143.77 400.07C1148 402.782 1154.74 405.015 1163.99 406.77L1181.69 410.119C1193.98 412.432 1204.06 415.702 1211.96 419.929C1219.86 424.156 1225.72 429.539 1229.55 436.079C1233.37 442.539 1235.29 450.394 1235.29 459.646V459.765C1235.29 471.25 1232.42 481.219 1226.67 489.672C1220.93 498.126 1212.64 504.666 1201.79 509.292C1190.95 513.837 1177.91 516.11 1162.67 516.11ZM1270.65 513L1236.79 382.724H1279.74L1296.25 474.719H1297.08L1316.94 382.724H1357.5L1377.59 474.719H1378.43L1394.94 382.724H1436.93L1403.31 513H1357.62L1336.92 425.312H1336.08L1315.63 513H1270.65ZM1441.78 513V382.724H1484.25V513H1441.78ZM1462.96 368.728C1456.89 368.728 1451.75 366.654 1447.52 362.507C1443.38 358.36 1441.3 353.455 1441.3 347.792C1441.3 342.05 1443.38 337.146 1447.52 333.078C1451.75 328.931 1456.89 326.857 1462.96 326.857C1469.1 326.857 1474.24 328.931 1478.39 333.078C1482.54 337.146 1484.61 342.05 1484.61 347.792C1484.61 353.455 1482.54 358.36 1478.39 362.507C1474.24 366.654 1469.1 368.728 1462.96 368.728ZM1508.36 513V413.828H1491.02V382.724H1508.36V375.188C1508.36 366.574 1509.88 359.516 1512.91 354.013C1515.94 348.431 1520.84 344.323 1527.62 341.691C1534.48 338.98 1543.61 337.624 1555.02 337.624C1558.69 337.624 1562.39 337.823 1566.14 338.222C1569.97 338.541 1573 338.94 1575.23 339.418V365.737C1574.12 365.577 1572.72 365.458 1571.05 365.378C1569.45 365.218 1567.86 365.139 1566.26 365.139C1560.44 365.139 1556.21 366.215 1553.58 368.369C1551.03 370.442 1549.75 373.353 1549.75 377.102V382.724H1575.12V413.828H1550.83V513H1508.36ZM1640.98 515.751C1625.27 515.751 1613.66 512.641 1606.17 506.42C1598.75 500.12 1595.04 489.632 1595.04 474.958V413.828H1577.34V382.724H1595.04V352.697H1637.63V382.724H1660.96V413.828H1637.63V469.216C1637.63 474.799 1638.9 478.786 1641.46 481.179C1644.01 483.492 1647.84 484.648 1652.94 484.648C1654.7 484.648 1656.17 484.608 1657.37 484.528C1658.56 484.369 1659.76 484.209 1660.96 484.05V514.196C1658.64 514.595 1655.85 514.954 1652.58 515.273C1649.31 515.592 1645.44 515.751 1640.98 515.751Z" fill="#F05137"/>
<path d="M1167.23 722.695C1151.96 722.695 1138.67 719.289 1127.36 712.476C1116.13 705.662 1107.44 696.004 1101.31 683.501C1095.17 670.923 1092.1 656.061 1092.1 638.916V638.804C1092.1 621.659 1095.17 606.834 1101.31 594.331C1107.44 581.828 1116.13 572.207 1127.36 565.469C1138.59 558.656 1151.88 555.249 1167.23 555.249C1179.13 555.249 1189.88 557.533 1199.46 562.1C1209.04 566.667 1216.94 572.993 1223.16 581.079C1229.37 589.165 1233.3 598.561 1234.95 609.268L1235.06 610.391H1210.02L1209.34 608.145C1207.62 601.781 1204.81 596.315 1200.92 591.748C1197.1 587.181 1192.35 583.7 1186.66 581.304C1181.04 578.833 1174.57 577.598 1167.23 577.598C1157.2 577.598 1148.47 580.106 1141.06 585.122C1133.72 590.138 1128.03 597.214 1123.99 606.348C1119.95 615.482 1117.93 626.3 1117.93 638.804V638.916C1117.93 651.344 1119.95 662.201 1123.99 671.484C1128.03 680.693 1133.76 687.806 1141.17 692.822C1148.59 697.839 1157.27 700.347 1167.23 700.347C1174.42 700.347 1180.82 699.149 1186.43 696.753C1192.12 694.282 1196.95 690.688 1200.92 685.972C1204.89 681.255 1207.85 675.49 1209.79 668.677L1210.13 667.554H1235.17L1234.95 668.677C1233.3 679.458 1229.37 688.929 1223.16 697.09C1217.02 705.176 1209.16 711.465 1199.57 715.957C1189.99 720.449 1179.21 722.695 1167.23 722.695ZM1299.14 722.358C1287.83 722.358 1277.95 719.888 1269.49 714.946C1261.1 709.93 1254.59 702.855 1249.95 693.721C1245.31 684.512 1242.98 673.581 1242.98 660.928V660.703C1242.98 648.125 1245.31 637.269 1249.95 628.135C1254.66 619.001 1261.22 611.963 1269.6 607.021C1278.06 602.08 1287.87 599.609 1299.02 599.609C1310.26 599.609 1320.06 602.08 1328.45 607.021C1336.91 611.888 1343.46 618.888 1348.1 628.022C1352.82 637.157 1355.18 648.05 1355.18 660.703V660.928C1355.18 673.656 1352.82 684.587 1348.1 693.721C1343.46 702.855 1336.95 709.93 1328.56 714.946C1320.18 719.888 1310.37 722.358 1299.14 722.358ZM1299.25 701.919C1305.54 701.919 1311 700.309 1315.65 697.09C1320.29 693.87 1323.88 689.229 1326.43 683.164C1328.97 677.025 1330.25 669.613 1330.25 660.928V660.703C1330.25 652.093 1328.97 644.756 1326.43 638.691C1323.88 632.552 1320.25 627.91 1315.53 624.766C1310.82 621.546 1305.31 619.937 1299.02 619.937C1292.81 619.937 1287.35 621.546 1282.63 624.766C1277.99 627.985 1274.36 632.627 1271.73 638.691C1269.11 644.756 1267.8 652.093 1267.8 660.703V660.928C1267.8 669.613 1269.08 677.025 1271.62 683.164C1274.24 689.229 1277.91 693.87 1282.63 697.09C1287.35 700.309 1292.89 701.919 1299.25 701.919ZM1367.03 720V601.855H1391.51V619.712H1391.96C1395.11 613.722 1399.71 608.893 1405.78 605.225C1411.84 601.481 1419.33 599.609 1428.24 599.609C1441.19 599.609 1451.22 603.54 1458.34 611.401C1465.45 619.188 1469 629.894 1469 643.521V720H1444.63V648.237C1444.63 639.328 1442.54 632.477 1438.35 627.686C1434.23 622.894 1427.98 620.498 1419.59 620.498C1413.9 620.498 1408.92 621.771 1404.65 624.316C1400.46 626.862 1397.2 630.418 1394.88 634.985C1392.64 639.552 1391.51 644.943 1391.51 651.157V720H1367.03ZM1485.46 720V601.855H1509.95V619.712H1510.4C1513.54 613.722 1518.14 608.893 1524.21 605.225C1530.27 601.481 1537.76 599.609 1546.67 599.609C1559.62 599.609 1569.66 603.54 1576.77 611.401C1583.88 619.188 1587.44 629.894 1587.44 643.521V720H1563.07V648.237C1563.07 639.328 1560.97 632.477 1556.78 627.686C1552.66 622.894 1546.41 620.498 1538.02 620.498C1532.33 620.498 1527.35 621.771 1523.09 624.316C1518.89 626.862 1515.64 630.418 1513.32 634.985C1511.07 639.552 1509.95 644.943 1509.95 651.157V720H1485.46ZM1654.43 722.358C1642.9 722.358 1632.95 719.888 1624.56 714.946C1616.25 709.93 1609.85 702.855 1605.36 693.721C1600.94 684.512 1598.73 673.693 1598.73 661.265V661.152C1598.73 648.874 1600.98 638.13 1605.47 628.921C1609.96 619.637 1616.29 612.45 1624.45 607.358C1632.61 602.192 1642.19 599.609 1653.2 599.609C1664.28 599.609 1673.79 602.08 1681.72 607.021C1689.73 611.888 1695.91 618.813 1700.25 627.798C1704.6 636.707 1706.77 647.077 1706.77 658.906V667.104H1610.75V649.922H1694.98L1682.96 665.981V656.548C1682.96 648.237 1681.69 641.349 1679.14 635.884C1676.67 630.343 1673.19 626.226 1668.7 623.53C1664.28 620.835 1659.15 619.487 1653.31 619.487C1647.55 619.487 1642.38 620.91 1637.81 623.755C1633.25 626.6 1629.65 630.793 1627.03 636.333C1624.41 641.799 1623.1 648.537 1623.1 656.548V665.981C1623.1 673.618 1624.37 680.169 1626.92 685.635C1629.54 691.025 1633.25 695.181 1638.04 698.101C1642.83 700.946 1648.48 702.368 1654.99 702.368C1659.79 702.368 1664.02 701.657 1667.69 700.234C1671.35 698.737 1674.39 696.79 1676.78 694.395C1679.25 691.924 1680.97 689.191 1681.95 686.196L1682.28 685.298H1705.42L1705.19 686.533C1704.22 691.175 1702.39 695.63 1699.69 699.897C1697 704.165 1693.48 708.021 1689.14 711.465C1684.87 714.834 1679.81 717.492 1673.97 719.438C1668.13 721.385 1661.62 722.358 1654.43 722.358ZM1769.38 722.358C1757.93 722.358 1747.97 719.85 1739.51 714.834C1731.13 709.818 1724.65 702.705 1720.08 693.496C1715.59 684.287 1713.34 673.394 1713.34 660.815V660.703C1713.34 648.2 1715.63 637.381 1720.19 628.247C1724.84 619.113 1731.35 612.075 1739.74 607.134C1748.12 602.118 1757.93 599.609 1769.16 599.609C1779.27 599.609 1787.99 601.556 1795.33 605.449C1802.74 609.268 1808.54 614.359 1812.73 620.723C1816.93 627.087 1819.36 633.975 1820.03 641.387L1820.15 642.285H1796.9L1796.67 641.274C1795.4 635.509 1792.48 630.531 1787.91 626.338C1783.42 622.07 1777.21 619.937 1769.27 619.937C1763.06 619.937 1757.59 621.621 1752.88 624.99C1748.23 628.285 1744.6 633.001 1741.98 639.141C1739.44 645.28 1738.16 652.542 1738.16 660.928V661.04C1738.16 669.65 1739.47 677.025 1742.09 683.164C1744.71 689.229 1748.35 693.87 1752.99 697.09C1757.7 700.309 1763.21 701.919 1769.5 701.919C1776.98 701.919 1783.01 699.972 1787.58 696.079C1792.22 692.111 1795.29 686.945 1796.79 680.581L1796.9 679.683H1820.26V680.469C1819.36 688.33 1816.66 695.443 1812.17 701.807C1807.75 708.096 1801.88 713.112 1794.54 716.855C1787.28 720.524 1778.89 722.358 1769.38 722.358ZM1872.32 722.358C1860.64 722.358 1851.92 719.738 1846.15 714.497C1840.46 709.181 1837.62 700.609 1837.62 688.779V621.172H1820.66V601.855H1837.62V571.084H1862.55V601.855H1884.67V621.172H1862.55V687.432C1862.55 693.421 1863.86 697.539 1866.48 699.785C1869.1 701.956 1872.99 703.042 1878.16 703.042C1879.43 703.042 1880.59 703.005 1881.64 702.93C1882.76 702.78 1883.77 702.668 1884.67 702.593V721.348C1883.25 721.572 1881.45 721.797 1879.28 722.021C1877.11 722.246 1874.79 722.358 1872.32 722.358ZM1898.66 720V601.855H1923.14V720H1898.66ZM1910.9 583.662C1907.01 583.662 1903.68 582.314 1900.91 579.619C1898.14 576.849 1896.75 573.555 1896.75 569.736C1896.75 565.768 1898.14 562.437 1900.91 559.741C1903.68 557.046 1907.01 555.698 1910.9 555.698C1914.87 555.698 1918.2 557.046 1920.9 559.741C1923.67 562.437 1925.05 565.768 1925.05 569.736C1925.05 573.555 1923.67 576.849 1920.9 579.619C1918.2 582.314 1914.87 583.662 1910.9 583.662ZM1992.05 722.358C1980.74 722.358 1970.86 719.888 1962.4 714.946C1954.01 709.93 1947.5 702.855 1942.86 693.721C1938.22 684.512 1935.9 673.581 1935.9 660.928V660.703C1935.9 648.125 1938.22 637.269 1942.86 628.135C1947.58 619.001 1954.13 611.963 1962.51 607.021C1970.97 602.08 1980.78 599.609 1991.94 599.609C2003.17 599.609 2012.97 602.08 2021.36 607.021C2029.82 611.888 2036.37 618.888 2041.01 628.022C2045.73 637.157 2048.09 648.05 2048.09 660.703V660.928C2048.09 673.656 2045.73 684.587 2041.01 693.721C2036.37 702.855 2029.86 709.93 2021.47 714.946C2013.09 719.888 2003.28 722.358 1992.05 722.358ZM1992.16 701.919C1998.45 701.919 2003.91 700.309 2008.56 697.09C2013.2 693.87 2016.79 689.229 2019.34 683.164C2021.88 677.025 2023.16 669.613 2023.16 660.928V660.703C2023.16 652.093 2021.88 644.756 2019.34 638.691C2016.79 632.552 2013.16 627.91 2008.44 624.766C2003.73 621.546 1998.22 619.937 1991.94 619.937C1985.72 619.937 1980.26 621.546 1975.54 624.766C1970.9 627.985 1967.27 632.627 1964.65 638.691C1962.03 644.756 1960.72 652.093 1960.72 660.703V660.928C1960.72 669.613 1961.99 677.025 1964.53 683.164C1967.15 689.229 1970.82 693.87 1975.54 697.09C1980.26 700.309 1985.8 701.919 1992.16 701.919ZM2059.94 720V601.855H2084.43V619.712H2084.87C2088.02 613.722 2092.62 608.893 2098.69 605.225C2104.75 601.481 2112.24 599.609 2121.15 599.609C2134.1 599.609 2144.13 603.54 2151.25 611.401C2158.36 619.188 2161.92 629.894 2161.92 643.521V720H2137.55V648.237C2137.55 639.328 2135.45 632.477 2131.26 627.686C2127.14 622.894 2120.89 620.498 2112.5 620.498C2106.81 620.498 2101.83 621.771 2097.57 624.316C2093.37 626.862 2090.12 630.418 2087.79 634.985C2085.55 639.552 2084.43 644.943 2084.43 651.157V720H2059.94Z" fill="white"/>
<path d="M892.438 495.955L646.806 306.957C586.51 260.944 502.49 260.944 442.194 306.957L196.562 495.955C171.356 515.251 159 543.947 159 572.148V653.784C159.494 681.49 171.85 709.197 196.562 728.492L442.194 917.491C502.49 963.504 586.51 963.504 646.806 917.491L892.438 728.492C917.644 709.197 930 680.501 930 652.299V570.664C929.506 542.957 917.15 515.251 892.438 495.955Z" fill="url(#paint0_linear_968_2330)"/>
<path d="M196.562 624.593L442.194 435.594C502.49 389.582 586.51 389.582 646.806 435.594L892.438 624.593C917.15 643.394 929.506 624.593 930 652.299V570.664C929.506 542.957 917.15 515.251 892.438 495.955L646.806 306.957C586.51 260.944 502.49 260.944 442.194 306.957L196.562 495.955C171.356 515.251 159 543.947 159 572.148V652.299C159.494 624.593 171.85 643.888 196.562 624.593Z" fill="url(#paint1_linear_968_2330)"/>
<path d="M196.562 646.857L442.194 835.856C502.49 881.868 586.51 881.868 646.806 835.856L892.438 646.857C917.15 628.056 929.506 600.35 930 572.148V653.784C929.506 681.49 917.15 709.197 892.438 728.493L646.806 917.491C586.51 963.504 502.49 963.504 442.194 917.491L196.562 728.493C171.356 709.197 159 680.501 159 652.3V572.643C159.494 600.35 171.85 628.056 196.562 646.857Z" fill="url(#paint2_linear_968_2330)"/>
<path d="M892.438 411.624L646.806 222.626C586.51 176.613 502.49 176.613 442.194 222.626L196.562 411.624C171.356 430.92 159 459.616 159 487.817V569.453C159.494 597.159 171.85 624.866 196.562 644.161L442.194 833.16C502.49 879.172 586.51 879.172 646.806 833.16L892.438 644.161C917.644 624.866 930 596.17 930 567.968V486.333C929.506 458.626 917.15 430.92 892.438 411.624Z" fill="url(#paint3_linear_968_2330)"/>
<path d="M196.562 540.262L442.194 351.263C502.49 305.251 586.51 305.251 646.806 351.263L892.438 540.262C917.15 559.063 929.506 540.262 930 567.968V486.333C929.506 458.626 917.15 430.92 892.438 411.624L646.806 222.626C586.51 176.613 502.49 176.613 442.194 222.626L196.562 411.624C171.356 430.92 159 459.616 159 487.817V567.968C159.494 540.262 171.85 559.557 196.562 540.262Z" fill="url(#paint4_linear_968_2330)"/>
<path d="M196.562 562.525L442.194 751.524C502.49 797.536 586.51 797.536 646.806 751.524L892.438 562.525C917.15 543.724 929.506 516.018 930 487.816V569.452C929.506 597.158 917.15 624.865 892.438 644.161L646.806 833.159C586.51 879.172 502.49 879.172 442.194 833.159L196.562 644.161C171.356 624.865 159 596.169 159 567.968V488.311C159.494 516.018 171.85 543.724 196.562 562.525Z" fill="url(#paint5_linear_968_2330)"/>
<path d="M892.438 331.508L646.806 142.51C586.51 96.4968 502.49 96.4968 442.194 142.51L196.562 331.508C171.356 350.804 159 379.5 159 407.701V489.336C159.494 517.043 171.85 544.75 196.562 564.045L442.194 753.044C502.49 799.056 586.51 799.056 646.806 753.044L892.438 564.045C917.644 544.75 930 516.053 930 487.852V406.217C929.506 378.51 917.15 350.804 892.438 331.508Z" fill="url(#paint6_linear_968_2330)"/>
<path d="M196.562 482.409L442.194 671.407C502.49 717.42 586.51 717.42 646.806 671.407L892.438 482.409C917.15 463.608 929.506 435.902 930 407.7V489.336C929.506 517.042 917.15 544.749 892.438 564.044L646.806 753.043C586.51 799.056 502.49 799.056 442.194 753.043L196.562 564.044C171.356 544.749 159 516.053 159 487.851V408.195C159.494 435.902 171.85 463.608 196.562 482.409Z" fill="url(#paint7_linear_968_2330)"/>
<path d="M305.56 368.572C307.141 369.75 309.111 370.633 311.341 371.086C313.721 371.571 316.165 371.519 318.432 371.014C320.087 365.15 322.141 359.338 324.592 353.603C322.959 352.3 320.872 351.324 318.486 350.838C316.261 350.386 313.981 350.401 311.841 350.817C309.356 356.669 307.263 362.595 305.56 368.572Z" fill="white"/>
<path d="M301.158 389.994C302.213 390.282 303.293 390.539 304.398 390.764C307.694 391.435 310.997 391.772 314.251 391.803C309.283 432.692 323.1 474.645 355.701 509.582C351.891 511.31 348.45 513.513 345.54 516.111C310.357 478.782 295.563 433.78 301.158 389.994Z" fill="white"/>
<path d="M322.181 330.607C323.263 330.756 324.347 330.94 325.43 331.16C328.749 331.836 331.852 332.807 334.707 334.027C345.835 315.8 361.294 298.722 381.084 283.689C401.018 268.545 423.683 256.739 447.874 248.272C445.717 245.327 444.192 242.11 443.388 238.753C417.413 247.729 393.078 260.334 371.709 276.567C350.491 292.687 333.981 311.029 322.181 330.607Z" fill="white"/>
<path d="M469.86 230.986C477.582 229.105 485.402 227.523 493.289 226.239C495.995 228.724 497.176 232.191 495.938 235.699C495.886 235.847 495.83 235.993 495.771 236.137C488.308 237.359 480.91 238.865 473.605 240.653C470.42 238.266 468.822 234.677 469.86 230.986Z" fill="white"/>
<path d="M523.242 232.928C523.246 229.497 522.497 226.135 521.082 222.966C578.648 218.733 637.806 229.949 686.899 256.614C683.576 258.813 680.701 261.435 678.432 264.403C632.4 239.614 577.113 229.123 523.242 232.928Z" fill="white"/>
<path d="M716.392 290.001C713.824 287.849 711.174 285.734 708.441 283.658C705.702 281.577 702.911 279.559 700.072 277.604C700.108 277.489 700.146 277.373 700.187 277.257C701.437 273.714 704.795 271.145 708.828 270.037C711.878 272.134 714.876 274.3 717.818 276.535C720.597 278.646 723.296 280.796 725.914 282.982C724.423 286.588 720.706 289.112 716.392 290.001Z" fill="white"/>
<path d="M733.672 306.331C766.137 341.06 780.023 382.739 775.33 423.417C778.546 423.455 781.81 423.792 785.066 424.454C786.212 424.687 787.331 424.956 788.424 425.257C793.752 381.654 778.875 336.898 743.791 299.759C740.897 302.37 737.47 304.587 733.672 306.331Z" fill="white"/>
<path d="M784.11 446.803C782.46 452.698 780.43 458.544 778.021 464.319C775.767 464.814 773.341 464.861 770.978 464.38C768.724 463.922 766.737 463.025 765.147 461.829C767.606 456.005 769.655 450.102 771.295 444.148C773.488 443.696 775.835 443.667 778.123 444.132C780.451 444.606 782.495 445.547 784.11 446.803Z" fill="white"/>
<path d="M755.166 481.364C757.908 482.503 760.873 483.415 764.034 484.058C765.274 484.31 766.515 484.515 767.754 484.675C755.925 504.534 739.265 523.14 717.775 539.465C696.335 555.753 671.908 568.388 645.834 577.37C645.049 574.009 643.541 570.786 641.399 567.834C665.669 559.362 688.408 547.532 708.401 532.344C728.422 517.134 744.011 499.832 755.166 481.364Z" fill="white"/>
<path d="M593.384 579.95C600.896 578.727 608.344 577.219 615.696 575.424C618.842 577.837 620.391 581.436 619.298 585.126C611.613 586.989 603.831 588.556 595.983 589.828C593.221 587.338 592.004 583.838 593.255 580.295C593.296 580.179 593.339 580.064 593.384 579.95Z" fill="white"/>
<path d="M565.95 583.125C512.083 586.877 456.82 576.339 410.825 551.507C408.569 554.48 405.705 557.107 402.393 559.314C451.449 586.013 510.579 597.27 568.136 593.086C566.712 589.919 565.955 586.556 565.95 583.125Z" fill="white"/>
<path d="M380.533 545.91C384.49 544.778 387.773 542.231 389.006 538.737C389.063 538.576 389.115 538.415 389.161 538.255C386.408 536.354 383.702 534.394 381.043 532.375C378.277 530.273 375.596 528.132 373 525.954C368.662 526.793 364.899 529.281 363.343 532.861C366.032 535.112 368.807 537.325 371.667 539.498C374.568 541.702 377.525 543.84 380.533 545.91Z" fill="white"/>
<path d="M321.958 341C336.263 343.91 344.705 355.208 340.815 366.233C336.924 377.258 322.174 383.836 307.869 380.926C293.565 378.015 285.122 366.718 289.012 355.693C292.903 344.668 307.653 338.089 321.958 341Z" fill="white"/>
<path d="M613.247 562.967C627.552 565.877 635.995 577.175 632.104 588.2C628.214 599.225 613.464 605.803 599.159 602.893C584.854 599.982 576.411 588.685 580.302 577.66C584.192 566.634 598.942 560.056 613.247 562.967Z" fill="white"/>
<path d="M720.179 259.929C734.484 262.839 742.927 274.137 739.036 285.162C735.146 296.187 720.396 302.765 706.091 299.855C691.786 296.944 683.343 285.647 687.234 274.622C691.124 263.596 705.874 257.018 720.179 259.929Z" fill="white"/>
<path d="M383.098 516.139C397.403 519.049 405.845 530.346 401.955 541.372C398.064 552.397 383.314 558.975 369.009 556.065C354.704 553.154 346.262 541.857 350.152 530.832C354.043 519.806 368.793 513.228 383.098 516.139Z" fill="white"/>
<path d="M781.592 434.293C795.897 437.203 804.339 448.501 800.449 459.526C796.558 470.551 781.808 477.129 767.504 474.219C753.199 471.308 744.756 460.011 748.647 448.986C752.537 437.961 767.287 431.382 781.592 434.293Z" fill="white"/>
<path d="M490.03 213.1C504.335 216.011 512.777 227.308 508.887 238.333C504.996 249.358 490.246 255.937 475.941 253.026C461.636 250.115 453.194 238.818 457.084 227.793C460.975 216.768 475.725 210.19 490.03 213.1Z" fill="white"/>
<path d="M584.773 429.031C605.46 413.236 604.758 386.911 583.37 370.765L499.57 306.882C478.182 290.385 444.171 290.385 423.484 306.18C402.797 321.975 403.498 348.3 424.886 364.447L508.686 428.329C530.075 444.826 564.086 445.177 584.773 429.031Z" fill="white"/>
<path d="M553.566 330.75L595.291 362.691C622.639 383.4 623.341 417.097 597.044 437.455C570.747 457.813 526.918 457.462 499.569 436.402L457.844 404.461L443.819 415.342L485.544 447.283C518.503 472.204 569.695 474.661 604.056 453.601L624.042 468.694L596.342 490.105L610.718 501.338L679.792 447.985L665.416 436.753L637.716 458.164L617.731 443.071C645.08 416.395 641.924 377.433 608.965 352.161L567.24 320.22L553.566 330.75Z" fill="white"/>
</g>
<defs>
<linearGradient id="paint0_linear_968_2330" x1="343.541" y1="852.321" x2="746.162" y2="373.006" gradientUnits="userSpaceOnUse">
<stop stop-color="#B5C2F5"/>
<stop offset="0.414" stop-color="#647FE6"/>
<stop offset="0.5" stop-color="#5675EE"/>
<stop offset="1" stop-color="#282E77"/>
</linearGradient>
<linearGradient id="paint1_linear_968_2330" x1="159.104" y1="462.401" x2="930.099" y2="462.401" gradientUnits="userSpaceOnUse">
<stop offset="0.4" stop-color="#282E77"/>
<stop offset="0.5" stop-color="#5675EE"/>
</linearGradient>
<linearGradient id="paint2_linear_968_2330" x1="159.104" y1="762.507" x2="930.099" y2="762.507" gradientUnits="userSpaceOnUse">
<stop offset="0.45" stop-color="#5675EE"/>
<stop offset="0.5" stop-color="#33379F"/>
<stop offset="0.55" stop-color="#282E77"/>
</linearGradient>
<linearGradient id="paint3_linear_968_2330" x1="343.541" y1="767.99" x2="746.162" y2="288.675" gradientUnits="userSpaceOnUse">
<stop stop-color="white"/>
<stop offset="0.414" stop-color="#F5F5F7"/>
<stop offset="0.5" stop-color="#F5F5F7"/>
<stop offset="1" stop-color="#F5F5F7"/>
</linearGradient>
<linearGradient id="paint4_linear_968_2330" x1="159.104" y1="378.07" x2="930.099" y2="378.07" gradientUnits="userSpaceOnUse">
<stop offset="0.4" stop-color="#CBCBCB"/>
<stop offset="0.5" stop-color="white"/>
</linearGradient>
<linearGradient id="paint5_linear_968_2330" x1="159.104" y1="678.175" x2="930.099" y2="678.175" gradientUnits="userSpaceOnUse">
<stop offset="0.45" stop-color="white"/>
<stop offset="0.4999" stop-color="#CBCBCB"/>
<stop offset="0.5" stop-color="#33379F"/>
<stop offset="0.5001" stop-color="#CBCBCB"/>
<stop offset="0.55" stop-color="#CBCBCB"/>
</linearGradient>
<linearGradient id="paint6_linear_968_2330" x1="360.969" y1="89.5319" x2="1049.45" y2="976.36" gradientUnits="userSpaceOnUse">
<stop stop-color="#EDBEC0"/>
<stop offset="0.333333" stop-color="#ED3847"/>
<stop offset="0.770833" stop-color="#B32438"/>
<stop offset="1" stop-color="#ED1C24"/>
</linearGradient>
<linearGradient id="paint7_linear_968_2330" x1="159.104" y1="598.059" x2="930.099" y2="598.059" gradientUnits="userSpaceOnUse">
<stop offset="0.375" stop-color="#ED1C24"/>
<stop offset="0.45" stop-color="#ED1C24"/>
<stop offset="0.5" stop-color="#B32429"/>
<stop offset="0.55" stop-color="#9B212A"/>
</linearGradient>
<clipPath id="clip0_968_2330">
<rect width="2355" height="1058" rx="72" fill="white"/>
</clipPath>
</defs>
</svg>
