<svg width="421" height="249" viewBox="0 0 421 249" fill="none" xmlns="http://www.w3.org/2000/svg">
<path d="M280.4 45.2L230.7 7.00002C218.5 -2.29998 201.5 -2.29998 189.3 7.00002L139.6 45.2C134.5 49.1 132 54.9 132 60.6V77.1C132.1 82.7 134.6 88.3 139.6 92.2L189.3 130.4C201.5 139.7 218.5 139.7 230.7 130.4L280.4 92.2C285.5 88.3 288 82.5 288 76.8V60.3C287.9 54.7 285.4 49.1 280.4 45.2V45.2Z" fill="url(#paint0_linear_317_20)"/>
<path d="M139.6 71.2L189.3 33C201.5 23.7 218.5 23.7 230.7 33L280.4 71.2C285.4 75 287.9 71.2 288 76.8V60.3C287.9 54.7 285.4 49.1 280.4 45.2L230.7 7.00002C218.5 -2.29998 201.5 -2.29998 189.3 7.00002L139.6 45.2C134.5 49.1 132 54.9 132 60.6V76.8C132.1 71.2 134.6 75.1 139.6 71.2V71.2Z" fill="url(#paint1_linear_317_20)"/>
<path d="M139.6 75.7L189.3 113.9C201.5 123.2 218.5 123.2 230.7 113.9L280.4 75.7C285.4 71.9 287.9 66.3 288 60.6V77.1C287.9 82.7 285.4 88.3 280.4 92.2L230.7 130.4C218.5 139.7 201.5 139.7 189.3 130.4L139.6 92.2C134.5 88.3 132 82.5 132 76.8V60.7C132.1 66.3 134.6 71.9 139.6 75.7V75.7Z" fill="url(#paint2_linear_317_20)"/>
<path d="M139.6 92.3L189.3 130.5C201.5 139.8 218.5 139.8 230.7 130.5L280.4 92.3C285.4 88.5 287.9 82.9 288 77.2V93.7C287.9 99.3 285.4 104.9 280.4 108.8L230.7 147C218.5 156.3 201.5 156.3 189.3 147L139.6 108.8C134.5 104.9 132 99.1 132 93.4V77.2C132.1 82.8 134.6 88.4 139.6 92.3V92.3Z" fill="url(#paint3_linear_317_20)"/>
<path d="M139.6 108.8L189.3 147C201.5 156.3 218.5 156.3 230.7 147L280.4 108.8C285.4 105 287.9 99.4 288 93.7V110.2C287.9 115.8 285.4 121.4 280.4 125.3L230.7 163.5C218.5 172.8 201.5 172.8 189.3 163.5L139.6 125.3C134.5 121.4 132 115.6 132 109.9V93.7C132.1 99.4 134.6 105 139.6 108.8V108.8Z" fill="url(#paint4_linear_317_20)"/>
<path d="M224.3 92.7C230.2 88.2 230 80.7 223.9 76.1L200 57.9C193.9 53.2 184.2 53.2 178.3 57.7C172.4 62.2 172.6 69.7 178.7 74.3L202.6 92.5C208.6 97.2 218.4 97.2 224.3 92.7Z" fill="#C53433"/>
<path d="M215.4 64.7L227.3 73.8C235.1 79.7 235.3 89.3 227.8 95.1C220.3 100.9 207.8 100.8 200 94.8L188.1 85.7L184.1 88.8L196 97.9C205.4 105 220 105.7 229.8 99.7L235.5 104L227.6 110.1L231.7 113.3L251.5 98L247.4 94.8L239.5 100.9L233.8 96.6C241.6 89 240.7 77.9 231.3 70.7L219.4 61.6L215.4 64.7V64.7Z" fill="#C53433"/>
<path d="M224.3 69.6C230.2 65.1 230 57.6 223.9 53L200 34.8C193.9 30.1 184.2 30.1 178.3 34.6C172.4 39.1 172.6 46.6 178.7 51.2L202.6 69.4C208.7 74.1 218.4 74.2 224.3 69.6Z" fill="white"/>
<path d="M215.4 41.6L227.3 50.7C235.1 56.6 235.3 66.2 227.8 72C220.3 77.8 207.8 77.7 200 71.7L188.1 62.6L184.1 65.7L196 74.8C205.4 81.9 220 82.6 229.8 76.6L235.5 80.9L227.6 87L231.7 90.2L251.4 75L247.3 71.8L239.4 77.9L233.7 73.6C241.5 66 240.6 54.9 231.2 47.7L219.3 38.6L215.4 41.6V41.6Z" fill="white"/>
<path opacity="0.3" d="M280.4 45.2L230.7 7C224.6 2.3 217.3 0 210 0C202.7 0 195.4 2.3 189.3 7L139.6 45.2C134.5 49.1 132 54.9 132 60.6C132.1 66.2 134.6 71.8 139.6 75.7L189.3 113.9C195.4 118.6 202.7 120.9 210 120.9C217.3 120.9 224.6 118.6 230.7 113.9L280.4 75.7C285.4 71.9 287.9 66.3 288 60.6V60.2C287.9 54.7 285.4 49.1 280.4 45.2V45.2ZM286.8 60.6C286.7 66.2 284.1 71.3 279.7 74.7L230 113C224.3 117.3 217.2 119.7 210 119.7C202.8 119.7 195.7 117.3 190 113L140.3 74.8C135.9 71.4 133.3 66.2 133.2 60.7V60.4C133.3 54.8 135.9 49.7 140.3 46.3L190 7.9C195.7 3.6 202.8 1.2 210 1.2C217.2 1.2 224.3 3.6 230 7.9L279.7 46.1C284.1 49.5 286.7 54.6 286.8 60.2V60.6V60.6Z" fill="white" fill-opacity="0.9"/>
<path d="M38 245.1V188.9H74.9V198.6H49.8V213.7H72.7V223H49.8V245.1H38V245.1ZM80.8 203.4H91.8V210.9H92C93.5 205.6 97 202.7 102 202.7C103.3 202.7 104.5 202.9 105.2 203.1V213.1C104.3 212.7 102.7 212.4 101.1 212.4C95.5 212.4 92.2 215.8 92.2 221.7V245H80.8V203.4ZM146.6 232.3C145.4 240.5 137.9 246 127.5 246C114.6 246 106.9 237.8 106.9 224.4C106.9 211.1 114.7 202.4 127.1 202.4C139.3 202.4 147 210.6 147 223.3V226.8H118.1V227.5C118.1 233.5 121.9 237.5 127.7 237.5C131.9 237.5 135.1 235.4 136.1 232.2H146.6V232.3ZM118.3 219.9H136C135.8 214.6 132.3 210.9 127.2 210.9C122.2 210.9 118.6 214.7 118.3 219.9ZM152.8 203.4H163.8V210.8H164C166.2 205.6 170.6 202.6 177.1 202.6C186.4 202.6 191.6 208.4 191.6 218.2V245.1H180.2V220.6C180.2 215.1 177.6 212 172.5 212C167.4 212 164.1 215.7 164.1 221.2V245.2H152.7V203.4H152.8ZM226.2 218.9C225.5 214.5 222.6 211.4 217.9 211.4C212.3 211.4 208.8 216.2 208.8 224.2C208.8 232.4 212.3 237.1 218 237.1C222.6 237.1 225.5 234.4 226.2 229.8H236.8C236.2 239.7 228.8 246 217.8 246C205.2 246 197.2 237.8 197.2 224.2C197.2 210.8 205.2 202.5 217.7 202.5C229 202.5 236.2 209.5 236.7 218.9H226.2V218.9ZM242.6 188.9H253.8V210.8H254C256.2 205.5 260.8 202.6 267.2 202.6C276.5 202.6 281.8 208.6 281.8 218.3V245.2H270.4V220.7C270.4 215.3 267.7 212.1 262.5 212.1C257.1 212.1 253.9 215.9 253.9 221.4V245.2H242.5V188.9H242.6ZM289.9 245.1V188.9H301.7V214.5H302.1L323.3 188.9H336.4L315.5 213.8L337.8 245.1H323.7L307 221.6L301.7 227.9V245.1H289.9V245.1ZM341.5 192.9C341.5 189.6 344.2 187 347.6 187C351 187 353.7 189.6 353.7 192.9C353.7 196.2 351 198.8 347.6 198.8C344.2 198.8 341.5 196.2 341.5 192.9ZM341.9 203.4H353.3V245.1H341.9V203.4V203.4ZM375.3 193.7V203.3H383V211.9H375.3V231.9C375.3 235.1 376.9 236.6 380.2 236.6C381.2 236.6 382.3 236.5 383 236.4V244.8C381.8 245.1 379.9 245.3 377.6 245.3C367.8 245.3 363.9 242 363.9 233.9V212H358V203.4H363.9V193.8H375.3V193.7Z" fill="white"/>
<defs>
<linearGradient id="paint0_linear_317_20" x1="169.339" y1="117.228" x2="250.701" y2="20.264" gradientUnits="userSpaceOnUse">
<stop stop-color="#EDBEC0"/>
<stop offset="0.414" stop-color="#ED383F"/>
<stop offset="0.5" stop-color="#ED1C24"/>
<stop offset="1" stop-color="#B32429"/>
</linearGradient>
<linearGradient id="paint1_linear_317_20" x1="132.021" y1="38.418" x2="288.02" y2="38.418" gradientUnits="userSpaceOnUse">
<stop offset="0.4" stop-color="#B32429"/>
<stop offset="0.5" stop-color="#ED1C24"/>
</linearGradient>
<linearGradient id="paint2_linear_317_20" x1="132.021" y1="99.075" x2="288.02" y2="99.075" gradientUnits="userSpaceOnUse">
<stop offset="0.45" stop-color="#ED1C24"/>
<stop offset="0.5" stop-color="#B32429"/>
<stop offset="0.55" stop-color="#9B212A"/>
</linearGradient>
<linearGradient id="paint3_linear_317_20" x1="132.021" y1="115.614" x2="288.02" y2="115.614" gradientUnits="userSpaceOnUse">
<stop stop-color="#E5E5E5"/>
<stop offset="0.05" stop-color="white"/>
<stop offset="0.45" stop-color="white"/>
<stop offset="0.5" stop-color="#E5E5E5"/>
<stop offset="0.55" stop-color="#CBCBCB"/>
</linearGradient>
<linearGradient id="paint4_linear_317_20" x1="132.021" y1="132.154" x2="288.02" y2="132.154" gradientUnits="userSpaceOnUse">
<stop offset="0.45" stop-color="#5675EE"/>
<stop offset="0.5" stop-color="#33379F"/>
<stop offset="0.55" stop-color="#282E77"/>
</linearGradient>
</defs>
</svg>
